<svg width="106" height="28" viewBox="0 0 106 28" fill="none" xmlns="http://www.w3.org/2000/svg">
<g clip-path="url(#clip0_295_4410)">
<path d="M17.5634 0.619873H7.20215V25.258H17.5634V0.619873Z" fill="#D13037"/>
<path d="M24.9189 18.1368V7.89209L0.000463486 7.89209V18.1368H24.9189Z" fill="#D13037"/>
<path d="M36.7834 7.15301H31.2691L30.0152 9.83936H29.7178L33.8976 0.937866H34.1549L38.3347 9.83936H38.0373L36.7834 7.15301ZM36.6628 6.91458L34.0263 1.27961L31.3897 6.91458H36.6628Z" fill="black" stroke="black" stroke-miterlimit="10"/>
<path d="M44.5959 3.25854L41.051 10.8964C40.5526 11.9773 39.9578 12.3429 39.1781 12.3429C38.9102 12.3536 38.6432 12.3074 38.395 12.2073C38.1467 12.1072 37.9231 11.9556 37.7393 11.7627L37.9322 11.556C38.0874 11.7332 38.2803 11.8742 38.4971 11.969C38.7138 12.0638 38.9492 12.1101 39.1861 12.1044C39.8292 12.1044 40.3356 11.8104 40.7938 10.8169L41.252 9.81546L38.2055 3.25854H38.5029L41.3966 9.54524L44.2904 3.25854H44.5959Z" fill="black" stroke="black" stroke-miterlimit="10"/>
<path d="M51.7263 3.25854V9.8393H51.4691V8.09874C51.2817 8.64439 50.9183 9.11412 50.4347 9.43575C49.9511 9.75738 49.3741 9.91313 48.7924 9.87905C48.4218 9.9142 48.048 9.86736 47.6981 9.74192C47.3481 9.61648 47.0308 9.41558 46.7691 9.15381C46.5075 8.89205 46.308 8.57598 46.1852 8.22852C46.0625 7.88107 46.0195 7.51095 46.0594 7.14502V3.25854H46.3166V7.14502C46.275 7.4767 46.3096 7.81335 46.4176 8.13002C46.5257 8.4467 46.7045 8.73525 46.9408 8.97423C47.1771 9.21321 47.4648 9.39649 47.7826 9.51048C48.1003 9.62447 48.44 9.66624 48.7763 9.63267C49.1461 9.64908 49.5152 9.58684 49.8587 9.45016C50.2022 9.31347 50.512 9.10552 50.7672 8.84035C51.0224 8.57517 51.2172 8.25895 51.3382 7.91302C51.4593 7.56708 51.5039 7.19948 51.4691 6.83504V3.25854H51.7263Z" fill="black" stroke="black" stroke-miterlimit="10"/>
<path d="M60.3508 0.397339V9.8393H60.0936V7.82851C59.8815 8.43619 59.4803 8.96188 58.9475 9.33024C58.4147 9.6986 57.7776 9.89072 57.1275 9.87905C56.6914 9.87959 56.2597 9.79239 55.8588 9.62277C55.4578 9.45316 55.096 9.20467 54.7952 8.89242C54.4944 8.58016 54.261 8.21068 54.1092 7.80644C53.9575 7.40219 53.8904 6.97164 53.9122 6.54098C53.8938 6.11226 53.9633 5.6843 54.1166 5.28286C54.2699 4.88142 54.5038 4.51482 54.8043 4.20515C55.1047 3.89548 55.4654 3.64915 55.8647 3.48101C56.264 3.31286 56.6935 3.22638 57.1275 3.22677C57.7759 3.21276 58.4121 3.40207 58.9449 3.76757C59.4778 4.13308 59.8799 4.65601 60.0936 5.2614V0.397339H60.3508ZM60.0936 6.54098C60.118 6.14288 60.059 5.74409 59.9205 5.36952C59.7819 4.99496 59.5668 4.65267 59.2884 4.36402C59.0101 4.07538 58.6745 3.84658 58.3027 3.69192C57.9309 3.53727 57.5308 3.46009 57.1275 3.46519C56.7235 3.45899 56.3226 3.53536 55.9498 3.68952C55.5771 3.84368 55.2405 4.07232 54.9613 4.36109C54.6821 4.64985 54.4662 4.99252 54.3272 5.36763C54.1881 5.74274 54.129 6.1422 54.1534 6.54098C54.1291 6.94049 54.1882 7.34068 54.3271 7.71662C54.4659 8.09257 54.6816 8.43622 54.9606 8.72622C55.2395 9.01623 55.5759 9.24636 55.9487 9.4023C56.3215 9.55824 56.7227 9.63666 57.1275 9.63267C57.5316 9.63557 57.932 9.55633 58.3038 9.3999C58.6757 9.24347 59.0111 9.01317 59.2892 8.72329C59.5673 8.43341 59.7822 8.09013 59.9206 7.71473C60.059 7.33933 60.1179 6.93981 60.0936 6.54098Z" fill="black" stroke="black" stroke-miterlimit="10"/>
<path d="M67.8105 5.52374V9.83937H67.5532V8.45647C67.3224 8.91692 66.9586 9.29934 66.5079 9.5554C66.0572 9.81145 65.5398 9.92964 65.0212 9.89501C63.5261 9.89501 62.666 9.15586 62.666 8.05112C62.666 7.10534 63.2608 6.27879 65.0775 6.27879H67.5934V5.55554C67.6305 5.27374 67.6015 4.98727 67.5087 4.71834C67.4158 4.4494 67.2616 4.2052 67.058 4.00464C66.8544 3.80409 66.6068 3.65255 66.3345 3.56178C66.0621 3.471 65.7723 3.44341 65.4874 3.48115C64.5945 3.46713 63.7306 3.79459 63.076 4.39517L62.8911 4.22032C63.5992 3.58484 64.5231 3.23588 65.4794 3.24273C65.792 3.20788 66.1085 3.2427 66.4057 3.34465C66.7029 3.4466 66.9732 3.61309 67.1968 3.83188C67.4204 4.05066 67.5916 4.3162 67.6978 4.60897C67.804 4.90175 67.8425 5.21432 67.8105 5.52374ZM67.5532 7.95575V6.50925H65.0212C63.5181 6.50925 62.9232 7.14509 62.9232 8.01935C62.9232 9.01282 63.7271 9.6089 65.0212 9.6089C65.5677 9.64335 66.1107 9.50055 66.5676 9.2022C67.0246 8.90385 67.3707 8.46622 67.5532 7.95575Z" fill="black" stroke="black" stroke-miterlimit="10"/>
<path d="M30.875 16.4043C30.8769 16.3177 30.9121 16.2351 30.9732 16.1731C31.0344 16.1111 31.1171 16.0744 31.2046 16.0704C31.2935 16.0725 31.3782 16.1083 31.441 16.1705C31.5039 16.2326 31.5401 16.3164 31.5422 16.4043C31.5401 16.4921 31.5039 16.5759 31.441 16.638C31.3782 16.7002 31.2935 16.736 31.2046 16.7381C31.1171 16.7341 31.0344 16.6974 30.9732 16.6354C30.9121 16.5734 30.8769 16.4908 30.875 16.4043ZM31.076 18.5502H31.3332V25.1309H31.076V18.5502Z" fill="black" stroke="black" stroke-miterlimit="10"/>
<path d="M40.006 21.2205V25.099H39.7729V21.2205C39.7729 19.5912 38.8886 18.7249 37.3614 18.7249C36.9844 18.6999 36.6063 18.7554 36.2529 18.8874C35.8994 19.0195 35.5788 19.2252 35.3128 19.4905C35.0468 19.7558 34.8415 20.0746 34.7109 20.4251C34.5804 20.7757 34.5276 21.15 34.556 21.5225V25.099H34.2988V18.5183H34.556V20.2747C34.7646 19.718 35.1498 19.243 35.654 18.9207C36.1582 18.5984 36.7543 18.4461 37.3534 18.4865C37.7189 18.458 38.0862 18.5101 38.4288 18.639C38.7715 18.768 39.0809 18.9706 39.3347 19.2322C39.5885 19.4938 39.7804 19.8078 39.8965 20.1517C40.0126 20.4955 40.0499 20.8606 40.006 21.2205Z" fill="black" stroke="black" stroke-miterlimit="10"/>
<path d="M53.7434 21.2205V25.099H53.4862V21.2205C53.4862 19.5912 52.6261 18.7249 51.1712 18.7249C50.799 18.7051 50.427 18.7648 50.0802 18.8998C49.7335 19.0349 49.4202 19.2421 49.1617 19.5076C48.9031 19.773 48.7054 20.0903 48.582 20.438C48.4585 20.7857 48.4122 21.1556 48.4462 21.5225V25.099H48.189V21.2205C48.189 19.5912 47.3209 18.7249 45.874 18.7249C45.5015 18.7053 45.1292 18.7649 44.7821 18.8999C44.435 19.0349 44.1212 19.2421 43.8621 19.5073C43.603 19.7726 43.4045 20.0898 43.2801 20.4374C43.1557 20.7851 43.1082 21.1551 43.141 21.5225V25.099H42.8838V18.5183H43.141V20.2668C43.3337 19.7164 43.704 19.244 44.195 18.9223C44.6859 18.6006 45.2703 18.4474 45.8579 18.4865C46.4517 18.4312 47.0444 18.6031 47.5139 18.9668C47.9834 19.3305 48.2941 19.8583 48.3819 20.4416C48.5468 19.8504 48.9125 19.3334 49.4175 18.9773C49.9225 18.6213 50.5361 18.448 51.1551 18.4865C52.7547 18.4865 53.7434 19.4402 53.7434 21.2205Z" fill="black" stroke="black" stroke-miterlimit="10"/>
<path d="M56.4121 16.4043C56.416 16.317 56.4529 16.2343 56.5154 16.1725C56.5778 16.1107 56.6614 16.0743 56.7497 16.0704C56.838 16.0743 56.9216 16.1107 56.9841 16.1725C57.0466 16.2343 57.0834 16.317 57.0873 16.4043C57.0834 16.4915 57.0466 16.5742 56.9841 16.636C56.9216 16.6978 56.838 16.7342 56.7497 16.7381C56.6614 16.7342 56.5778 16.6978 56.5154 16.636C56.4529 16.5742 56.416 16.4915 56.4121 16.4043ZM56.6211 18.5502H56.8783V25.1309H56.6533L56.6211 18.5502Z" fill="black" stroke="black" stroke-miterlimit="10"/>
<path d="M65.5919 18.5183V24.5109C65.5919 26.6409 64.571 27.6026 62.5132 27.6026C61.9727 27.6268 61.4328 27.5428 60.9259 27.3557C60.419 27.1686 59.9555 26.8823 59.5632 26.5138L59.7481 26.331C60.4959 27.0224 61.4898 27.3938 62.5132 27.3642C64.4263 27.3642 65.3266 26.4979 65.3266 24.5507V22.8975C65.0984 23.4979 64.6857 24.0124 64.1465 24.3688C63.6072 24.7252 62.9686 24.9055 62.3203 24.8845C61.8913 24.8997 61.4637 24.8283 61.0635 24.6746C60.6634 24.5209 60.2991 24.2882 59.9929 23.9907C59.6868 23.6932 59.4451 23.3371 59.2828 22.9442C59.1205 22.5513 59.0408 22.1297 59.0487 21.7054C59.0385 21.2804 59.1165 20.8578 59.278 20.4638C59.4395 20.0698 59.6811 19.7128 59.9878 19.4148C60.2944 19.1169 60.6596 18.8842 61.0608 18.7314C61.462 18.5785 61.8907 18.5087 62.3203 18.5263C62.9652 18.5005 63.6021 18.6752 64.1414 19.0259C64.6807 19.3766 65.0952 19.8856 65.3266 20.4814V18.558L65.5919 18.5183ZM65.3266 21.6974C65.3415 21.3042 65.2737 20.9122 65.1275 20.5463C64.9814 20.1803 64.7601 19.8482 64.4775 19.5711C64.195 19.294 63.8574 19.0779 63.4861 18.9363C63.1148 18.7948 62.7178 18.7309 62.3203 18.7488C61.9224 18.731 61.5251 18.7948 61.1534 18.9363C60.7817 19.0778 60.4436 19.2938 60.1604 19.5708C59.8773 19.8478 59.6552 20.1797 59.5081 20.5457C59.3611 20.9117 59.2922 21.3038 59.306 21.6974C59.2912 22.092 59.3592 22.4854 59.5056 22.8527C59.6521 23.22 59.8739 23.5534 60.157 23.8319C60.4402 24.1103 60.7785 24.3278 61.1508 24.4707C61.5231 24.6136 61.9213 24.6787 62.3203 24.6619C62.7211 24.679 63.121 24.6132 63.4946 24.4688C63.8682 24.3245 64.2073 24.1047 64.4902 23.8235C64.7731 23.5423 64.9936 23.2059 65.1376 22.8357C65.2816 22.4655 65.346 22.0697 65.3266 21.6736V21.6974Z" fill="black" stroke="black" stroke-miterlimit="10"/>
<path d="M71.4116 18.4866V18.7409H71.3393C69.7316 18.7409 68.7992 19.8218 68.7992 21.5624V25.0991H68.542V18.5184H68.7992V20.2271C68.9718 19.6879 69.324 19.2223 69.7983 18.9063C70.2727 18.5902 70.8414 18.4423 71.4116 18.4866Z" fill="black" stroke="black" stroke-miterlimit="10"/>
<path d="M77.8417 20.7835V25.0991H77.5524V23.7003C77.3248 24.157 76.9665 24.5376 76.5221 24.7947C76.0777 25.0519 75.5666 25.1743 75.0525 25.1468C73.5574 25.1468 72.6973 24.4077 72.6973 23.3029C72.6973 22.3571 73.2921 21.5306 75.0605 21.5306H77.5524V20.8073C77.5894 20.5255 77.5604 20.2391 77.4676 19.9701C77.3747 19.7012 77.2205 19.457 77.0169 19.2564C76.8133 19.0559 76.5657 18.9043 76.2934 18.8136C76.021 18.7228 75.7312 18.6952 75.4463 18.7329C74.5534 18.7189 73.6895 19.0464 73.0349 19.6469L72.85 19.4721C73.5581 18.8366 74.482 18.4877 75.4383 18.4945C75.7572 18.4476 76.0827 18.4736 76.3898 18.5707C76.6969 18.6677 76.9773 18.8332 77.2095 19.0544C77.4417 19.2755 77.6195 19.5464 77.7291 19.8462C77.8387 20.146 77.8772 20.4666 77.8417 20.7835ZM77.5845 23.2155V21.769H75.0525C73.5493 21.769 72.9545 22.4048 72.9545 23.2791C72.9545 24.2725 73.7583 24.8686 75.0525 24.8686C75.5939 24.8973 76.1301 24.7517 76.5808 24.4537C77.0315 24.1556 77.3724 23.7212 77.5524 23.2155H77.5845Z" fill="black" stroke="black" stroke-miterlimit="10"/>
<path d="M86.4354 21.2206V25.0991H86.1781V21.2206C86.1781 19.5913 85.2939 18.725 83.7667 18.725C83.3897 18.7 83.0116 18.7554 82.6582 18.8875C82.3047 19.0196 81.9841 19.2253 81.7181 19.4906C81.452 19.7559 81.2468 20.0746 81.1162 20.4252C80.9857 20.7758 80.9328 21.15 80.9613 21.5226V25.0991H80.7041V18.5183H80.9613V20.2748C81.1699 19.7181 81.5551 19.2431 82.0593 18.9208C82.5635 18.5985 83.1596 18.4461 83.7586 18.4865C84.126 18.4543 84.4961 18.5036 84.8418 18.6309C85.1875 18.7582 85.5 18.9602 85.7566 19.2222C86.0131 19.4843 86.2072 19.7997 86.3246 20.1455C86.4421 20.4912 86.4799 20.8585 86.4354 21.2206Z" fill="black" stroke="black" stroke-miterlimit="10"/>
<path d="M92.3268 24.6699C91.9681 24.983 91.503 25.1505 91.0246 25.1388C90.8089 25.1569 90.5917 25.1283 90.3884 25.0548C90.185 24.9813 90.0003 24.8649 89.8472 24.7135C89.6941 24.5621 89.5763 24.3795 89.5019 24.1784C89.4276 23.9773 89.3986 23.7626 89.417 23.5493V18.7806H88.1309V18.5342H89.417V17.1036H89.6742V18.5342H91.9249V18.7886H89.6742V23.4857C89.6452 23.6732 89.6599 23.8649 89.7171 24.046C89.7743 24.2271 89.8725 24.3929 90.0042 24.5308C90.136 24.6687 90.2978 24.7751 90.4774 24.8419C90.657 24.9087 90.8497 24.9342 91.0407 24.9163C91.4463 24.9234 91.8397 24.7786 92.1419 24.511L92.3268 24.6699Z" fill="black" stroke="black" stroke-miterlimit="10"/>
<path d="M99.4251 21.8008H93.509C93.49 22.2071 93.556 22.6128 93.7029 22.9927C93.8498 23.3726 94.0743 23.7184 94.3625 24.0086C94.6507 24.2988 94.9963 24.527 95.3778 24.6791C95.7593 24.8312 96.1684 24.9038 96.5796 24.8925C97.0114 24.9093 97.4413 24.8261 97.8349 24.6494C98.2285 24.4728 98.5748 24.2077 98.8463 23.8752L99.0232 24.058C98.726 24.402 98.356 24.6772 97.9392 24.864C97.5225 25.0508 97.0693 25.1446 96.6117 25.1389C96.1669 25.1537 95.7238 25.0771 95.3105 24.9139C94.8971 24.7507 94.5226 24.5043 94.2105 24.1906C93.8985 23.8768 93.6557 23.5024 93.4976 23.091C93.3395 22.6796 93.2694 22.2403 93.2919 21.8008C93.26 21.3802 93.3157 20.9576 93.4556 20.5591C93.5954 20.1607 93.8165 19.7948 94.105 19.4842C94.3936 19.1736 94.7435 18.9247 95.1332 18.7532C95.5229 18.5816 95.944 18.4908 96.3706 18.4866C96.7931 18.4868 97.211 18.5727 97.5987 18.7387C97.9864 18.9047 98.3355 19.1475 98.6247 19.4521C98.9139 19.7566 99.1369 20.1165 99.2801 20.5095C99.4233 20.9025 99.4836 21.3203 99.4573 21.7372L99.4251 21.8008ZM93.509 21.5624H99.184C99.1819 20.8146 98.8822 20.0977 98.3497 19.5667C97.8172 19.0357 97.0947 18.7334 96.3384 18.725C95.5837 18.7334 94.8628 19.0363 94.3329 19.5677C93.8029 20.0991 93.5068 20.8161 93.509 21.5624Z" fill="black" stroke="black" stroke-miterlimit="10"/>
<path d="M100.526 24.2328L100.679 24.0261C101.349 24.5959 102.207 24.904 103.091 24.8925C104.698 24.8925 105.301 24.2964 105.301 23.4301C105.301 21.2285 100.743 22.7307 100.743 20.1794C100.743 19.2972 101.451 18.4865 103.099 18.4865C103.886 18.4726 104.657 18.7064 105.301 19.1542L105.148 19.3608C104.554 18.9323 103.834 18.7089 103.099 18.725C101.636 18.725 101.017 19.3608 101.017 20.1794C101.017 22.4366 105.558 20.9742 105.558 23.4301C105.558 24.4235 104.754 25.1388 103.091 25.1388C102.151 25.164 101.237 24.8408 100.526 24.2328Z" fill="black" stroke="black" stroke-miterlimit="10"/>
</g>
<defs>
<clipPath id="clip0_295_4410">
<rect width="106" height="28" fill="white"/>
</clipPath>
</defs>
</svg>
