<svg width="48" height="48" viewBox="0 0 48 48" fill="none" xmlns="http://www.w3.org/2000/svg">
<path fill-rule="evenodd" clip-rule="evenodd" d="M24 12C30.6274 12 36 17.3726 36 24C36 30.6274 30.6274 36 24 36C17.3726 36 12 30.6274 12 24C12 17.3726 17.3726 12 24 12ZM31.5849 18.1146L18.1146 31.5849C19.74 32.8479 21.7822 33.6 24 33.6C29.3019 33.6 33.6 29.3019 33.6 24C33.6 21.7822 32.8479 19.74 31.5849 18.1146ZM24 14.4C18.6981 14.4 14.4 18.6981 14.4 24C14.4 26.2178 15.1521 28.26 16.4151 29.8854L29.8854 16.4151C28.26 15.1521 26.2178 14.4 24 14.4Z" fill="#E04848"/>
</svg>
