<svg width="28" height="21" viewBox="0 0 28 21" fill="none" xmlns="http://www.w3.org/2000/svg">
<g clip-path="url(#clip0_321_9021)">
<path d="M0 0H28V21H0V0Z" fill="#DE2910"/>
<path d="M3.36008 7.7701L5.25006 2.1001L7.14003 7.7701L2.1001 4.3051H8.40002L3.36008 7.7701Z" fill="#FFDE00"/>
<path d="M11.5574 2.20881L9.61242 2.63984L10.9098 1.12799L10.7826 3.16274L9.7032 1.36137L11.5574 2.20881Z" fill="#FFDE00"/>
<path d="M13.5206 4.69648L11.5606 4.33941L13.3428 3.44908L12.4364 5.27522L12.1401 3.19622L13.5206 4.69648Z" fill="#FFDE00"/>
<path d="M13.2344 8.18668L11.5905 7.06127L13.5808 6.97524L12.0084 8.2729L12.5858 6.25385L13.2344 8.18668Z" fill="#FFDE00"/>
<path d="M10.7621 10.4666L9.68038 8.7936L11.5495 9.48299L9.59794 10.0726L10.9104 8.43327L10.7621 10.4666Z" fill="#FFDE00"/>
</g>
<defs>
<clipPath id="clip0_321_9021">
<rect width="28" height="21" fill="white"/>
</clipPath>
</defs>
</svg>
