<svg width="20" height="20" viewBox="0 0 20 20" fill="none" xmlns="http://www.w3.org/2000/svg">
<path d="M17.5 15.625C17.5 14.7963 17.1712 14.0013 16.585 13.415C15.9987 12.8288 15.2037 12.5 14.375 12.5C11.8088 12.5 8.19125 12.5 5.625 12.5C4.79625 12.5 4.00125 12.8288 3.415 13.415C2.82875 14.0013 2.5 14.7963 2.5 15.625V18.75H17.5C17.5 18.75 17.5 17.6838 17.5 15.625ZM15 7.5H17.5C18.1625 7.5 18.7987 7.76375 19.2675 8.2325C19.7362 8.70125 20 9.3375 20 10V13.75H18.3288C17.6262 12.2725 16.12 11.25 14.375 11.25H13.3063C14.345 10.3337 15 8.9925 15 7.5ZM1.67125 13.75H0C0 13.75 0 11.74 0 10C0 9.3375 0.26375 8.70125 0.7325 8.2325C1.20125 7.76375 1.8375 7.5 2.5 7.5H5C5 8.9925 5.655 10.3337 6.69375 11.25H5.625C3.88 11.25 2.37375 12.2712 1.67125 13.75ZM10 3.75C12.07 3.75 13.75 5.43 13.75 7.5C13.75 9.57 12.07 11.25 10 11.25C7.93 11.25 6.25 9.57 6.25 7.5C6.25 5.43 7.93 3.75 10 3.75ZM5.15875 6.245C5.10625 6.24875 5.05375 6.25 5 6.25C3.62 6.25 2.5 5.13 2.5 3.75C2.5 2.37 3.62 1.25 5 1.25C6.1925 1.25 7.19125 2.0875 7.44 3.205C6.32625 3.87125 5.4925 4.9575 5.15875 6.245ZM12.56 3.205C12.8088 2.0875 13.8075 1.25 15 1.25C16.38 1.25 17.5 2.37 17.5 3.75C17.5 5.13 16.38 6.25 15 6.25C14.9462 6.25 14.8938 6.24875 14.8413 6.245C14.5075 4.9575 13.6737 3.87125 12.56 3.205Z" fill="#E04848"/>
</svg>
