<svg width="31" height="31" viewBox="0 0 31 31" fill="none" xmlns="http://www.w3.org/2000/svg">
<path d="M6.33546 16.4723H21.3633L16.7637 21.9968C16.6572 22.1249 16.577 22.2728 16.5276 22.4319C16.4783 22.591 16.4607 22.7583 16.476 22.9242C16.5069 23.2593 16.6697 23.5683 16.9284 23.7834C17.1872 23.9985 17.5208 24.102 17.8558 24.0711C18.1909 24.0402 18.5 23.8775 18.715 23.6187L25.0505 16.0161C25.0932 15.9556 25.1313 15.8921 25.1646 15.826C25.1646 15.7627 25.2279 15.7247 25.2533 15.6613C25.3107 15.516 25.3408 15.3614 25.342 15.2052C25.3408 15.0489 25.3107 14.8943 25.2533 14.749C25.2533 14.6856 25.1899 14.6476 25.1646 14.5843C25.1313 14.5182 25.0932 14.4547 25.0505 14.3942L18.715 6.79161C18.5959 6.64857 18.4467 6.53355 18.2781 6.45471C18.1094 6.37587 17.9255 6.33515 17.7394 6.33545C17.4433 6.33487 17.1564 6.43798 16.9284 6.62688C16.8001 6.73326 16.6941 6.8639 16.6163 7.01132C16.5386 7.15874 16.4907 7.32005 16.4754 7.48602C16.4601 7.65198 16.4777 7.81932 16.5271 7.97848C16.5766 8.13763 16.657 8.28546 16.7637 8.4135L21.3633 13.9381H6.33546C5.9994 13.9381 5.67711 14.0716 5.43948 14.3092C5.20186 14.5468 5.06836 14.8691 5.06836 15.2052C5.06836 15.5412 5.20186 15.8635 5.43948 16.1011C5.67711 16.3388 5.9994 16.4723 6.33546 16.4723Z" fill="#4D4D4D"/>
</svg>
