<svg width="31" height="31" viewBox="0 0 31 31" fill="none" xmlns="http://www.w3.org/2000/svg">
<path d="M6.33546 16.4727H21.3633L16.7637 21.9973C16.6572 22.1254 16.577 22.2733 16.5276 22.4324C16.4783 22.5915 16.4607 22.7588 16.476 22.9247C16.5069 23.2598 16.6697 23.5688 16.9284 23.7839C17.1872 23.999 17.5208 24.1025 17.8558 24.0716C18.1909 24.0407 18.5 23.878 18.715 23.6192L25.0505 16.0166C25.0932 15.9561 25.1313 15.8926 25.1646 15.8265C25.1646 15.7632 25.2279 15.7252 25.2533 15.6618C25.3107 15.5165 25.3408 15.3619 25.342 15.2056C25.3408 15.0494 25.3107 14.8948 25.2533 14.7495C25.2533 14.6861 25.1899 14.6481 25.1646 14.5848C25.1313 14.5187 25.0932 14.4552 25.0505 14.3947L18.715 6.7921C18.5959 6.64906 18.4467 6.53403 18.2781 6.45519C18.1094 6.37635 17.9255 6.33564 17.7394 6.33594C17.4433 6.33536 17.1564 6.43847 16.9284 6.62737C16.8001 6.73374 16.6941 6.86438 16.6163 7.01181C16.5386 7.15923 16.4907 7.32054 16.4754 7.4865C16.4601 7.65246 16.4777 7.81981 16.5271 7.97897C16.5766 8.13812 16.657 8.28595 16.7637 8.41398L21.3633 13.9385H6.33546C5.9994 13.9385 5.67711 14.072 5.43948 14.3097C5.20186 14.5473 5.06836 14.8696 5.06836 15.2056C5.06836 15.5417 5.20186 15.864 5.43948 16.1016C5.67711 16.3392 5.9994 16.4727 6.33546 16.4727Z" fill="#4D4D4D"/>
</svg>
