<svg width="20" height="26" viewBox="0 0 20 26" fill="none" xmlns="http://www.w3.org/2000/svg">
<path d="M13.5876 19.825C13.0497 19.825 12.6911 19.6625 12.1532 19.5L10.0018 18.6875L7.85027 19.5C7.49169 19.6625 6.95382 19.825 6.41595 19.825C6.05737 19.825 5.87808 19.825 5.5195 19.6625L4.62305 26L10.0018 22.75L15.3805 26L14.3047 19.6625C14.1254 19.825 13.7668 19.825 13.5876 19.825Z" fill="#E04848"/>
<path d="M18.7868 9.5875C18.6076 9.2625 18.6076 8.775 18.7868 8.45L19.8626 6.5C20.2212 5.85 19.8626 5.0375 18.9661 4.7125L16.6354 3.9C16.2768 3.7375 15.9182 3.4125 15.7389 3.0875L14.8425 0.975C14.6632 0.325 14.1253 0 13.5874 0C13.4081 0 13.0496 0 12.8703 0.1625L10.5395 1.1375C10.3602 1.1375 10.1809 1.1375 10.0016 1.1375C9.82234 1.1375 9.64305 1.1375 9.46376 0.975L7.13299 0.1625C6.9537 0 6.59512 0 6.41583 0C5.87796 0 5.34009 0.325 4.98151 0.8125L4.08506 3.0875C4.08506 3.4125 3.72648 3.7375 3.3679 3.9L0.857834 4.7125C0.140673 4.875 -0.217908 5.6875 0.140673 6.5L1.21641 8.6125C1.3957 8.9375 1.3957 9.425 1.21641 9.75L0.140673 11.7C-0.217908 12.35 0.140673 13.1625 1.03712 13.4875L3.3679 14.3C3.72648 14.4625 4.08506 14.7875 4.26435 15.1125L5.1608 17.225C5.34009 17.875 5.87796 18.2 6.41583 18.2C6.59512 18.2 6.77441 18.2 6.9537 18.0375L9.28447 17.0625C9.46376 17.0625 9.64305 16.9 9.82234 16.9C10.0016 16.9 10.1809 16.9 10.3602 17.0625L12.691 18.0375C12.8703 18.2 13.0496 18.2 13.2289 18.2C13.7667 18.2 14.3046 17.875 14.6632 17.3875L15.5596 15.275C15.7389 14.95 16.0975 14.625 16.4561 14.4625L18.7868 13.65C19.504 13.325 20.0419 12.5125 19.6833 11.8625L18.7868 9.5875ZM10.0016 15.6C6.05725 15.6 2.83003 12.675 2.83003 9.1C2.83003 5.525 6.05725 2.6 10.0016 2.6C13.946 2.6 17.1732 5.525 17.1732 9.1C17.1732 12.675 13.946 15.6 10.0016 15.6Z" fill="#E04848"/>
<path d="M15.3805 9.1001C15.3805 11.7927 12.9726 13.9751 10.0018 13.9751C7.03091 13.9751 4.62305 11.7927 4.62305 9.1001C4.62305 6.40747 7.03091 4.2251 10.0018 4.2251C12.9726 4.2251 15.3805 6.40747 15.3805 9.1001Z" fill="#E04848"/>
</svg>
