<svg width="32" height="32" viewBox="0 0 32 32" fill="none" xmlns="http://www.w3.org/2000/svg">
<path d="M22.1479 16.3486H23.9999" stroke="#19274C" stroke-width="1.2"/>
<path d="M8 16.3486H18.2007" stroke="#19274C" stroke-width="1.2"/>
<path d="M14.2041 11.0757H24.0002" stroke="#19274C" stroke-width="1.2"/>
<path d="M8 11.0757H10.2632" stroke="#19274C" stroke-width="1.2"/>
<path d="M16.9861 21.6216H23.9993" stroke="#19274C" stroke-width="1.2"/>
<path d="M8 21.6216H13.0395" stroke="#19274C" stroke-width="1.2"/>
<path d="M12.2332 12.9474C13.3233 12.9474 14.2069 12.0637 14.2069 10.9737C14.2069 9.88366 13.3233 9 12.2332 9C11.1432 9 10.2595 9.88366 10.2595 10.9737C10.2595 12.0637 11.1432 12.9474 12.2332 12.9474Z" stroke="#19274C" stroke-width="1.2"/>
<path d="M20.1746 18.3224C21.2647 18.3224 22.1483 17.4387 22.1483 16.3487C22.1483 15.2587 21.2647 14.375 20.1746 14.375C19.0846 14.375 18.2009 15.2587 18.2009 16.3487C18.2009 17.4387 19.0846 18.3224 20.1746 18.3224Z" stroke="#19274C" stroke-width="1.2"/>
<path d="M15.0137 23.5958C16.1038 23.5958 16.9874 22.7122 16.9874 21.6221C16.9874 20.5321 16.1038 19.6484 15.0137 19.6484C13.9237 19.6484 13.04 20.5321 13.04 21.6221C13.04 22.7122 13.9237 23.5958 15.0137 23.5958Z" stroke="#19274C" stroke-width="1.2"/>
</svg>
