<svg width="106" height="28" viewBox="0 0 106 28" fill="none" xmlns="http://www.w3.org/2000/svg">
<g clip-path="url(#clip0_320_19142)">
<path d="M17.5634 0.620117H7.20215V25.2582H17.5634V0.620117Z" fill="#D13037"/>
<path d="M24.9185 18.1368V7.89209L-2.47955e-05 7.89209V18.1368H24.9185Z" fill="#D13037"/>
<path d="M36.7829 7.15313H31.2687L30.0147 9.83948H29.7173L33.8972 0.937988H34.1544L38.3343 9.83948H38.0368L36.7829 7.15313ZM36.6623 6.9147L34.0258 1.27974L31.3892 6.9147H36.6623Z" fill="black" stroke="black" stroke-miterlimit="10"/>
<path d="M44.5959 3.25879L41.051 10.8966C40.5526 11.9775 39.9578 12.3431 39.1781 12.3431C38.9102 12.3539 38.6432 12.3076 38.395 12.2075C38.1467 12.1074 37.9231 11.9558 37.7393 11.7629L37.9322 11.5563C38.0874 11.7334 38.2803 11.8745 38.4971 11.9693C38.7138 12.0641 38.9492 12.1103 39.1861 12.1047C39.8292 12.1047 40.3356 11.8106 40.7938 10.8171L41.252 9.8157L38.2055 3.25879H38.5029L41.3966 9.54548L44.2904 3.25879H44.5959Z" fill="black" stroke="black" stroke-miterlimit="10"/>
<path d="M51.7258 3.25879V9.83954H51.4686V8.09898C51.2812 8.64463 50.9178 9.11436 50.4342 9.43599C49.9507 9.75762 49.3736 9.91337 48.7919 9.8793C48.4213 9.91444 48.0475 9.8676 47.6976 9.74216C47.3476 9.61672 47.0303 9.41582 46.7686 9.15406C46.507 8.89229 46.3075 8.57622 46.1848 8.22877C46.062 7.88131 46.019 7.51119 46.0589 7.14526V3.25879H46.3161V7.14526C46.2745 7.47694 46.3091 7.8136 46.4172 8.13027C46.5252 8.44694 46.7041 8.73549 46.9403 8.97448C47.1766 9.21346 47.4643 9.39673 47.7821 9.51072C48.0998 9.62471 48.4395 9.66649 48.7758 9.63292C49.1456 9.64932 49.5148 9.58708 49.8582 9.4504C50.2017 9.31372 50.5115 9.10576 50.7667 8.84059C51.0219 8.57542 51.2167 8.2592 51.3378 7.91326C51.4588 7.56733 51.5035 7.19973 51.4686 6.83529V3.25879H51.7258Z" fill="black" stroke="black" stroke-miterlimit="10"/>
<path d="M60.3508 0.397461V9.83942H60.0936V7.82863C59.8815 8.43631 59.4803 8.962 58.9475 9.33036C58.4147 9.69872 57.7776 9.89084 57.1275 9.87917C56.6914 9.87971 56.2597 9.79251 55.8588 9.6229C55.4578 9.45328 55.096 9.20479 54.7952 8.89254C54.4944 8.58029 54.261 8.21081 54.1092 7.80656C53.9575 7.40232 53.8904 6.97176 53.9122 6.5411C53.8938 6.11238 53.9633 5.68442 54.1166 5.28298C54.2699 4.88154 54.5038 4.51494 54.8043 4.20528C55.1047 3.89561 55.4654 3.64928 55.8647 3.48113C56.264 3.31298 56.6935 3.2265 57.1275 3.22689C57.7759 3.21288 58.4121 3.40219 58.9449 3.7677C59.4778 4.1332 59.8799 4.65613 60.0936 5.26152V0.397461H60.3508ZM60.0936 6.5411C60.118 6.143 60.059 5.74421 59.9205 5.36965C59.7819 4.99508 59.5668 4.65279 59.2884 4.36414C59.0101 4.0755 58.6745 3.8467 58.3027 3.69205C57.9309 3.53739 57.5308 3.46022 57.1275 3.46531C56.7235 3.45911 56.3226 3.53548 55.9498 3.68965C55.5771 3.84381 55.2405 4.07244 54.9613 4.36121C54.6821 4.64997 54.4662 4.99264 54.3272 5.36775C54.1881 5.74287 54.129 6.14232 54.1534 6.5411C54.1291 6.94061 54.1882 7.3408 54.3271 7.71675C54.4659 8.09269 54.6816 8.43635 54.9606 8.72635C55.2395 9.01635 55.5759 9.24648 55.9487 9.40242C56.3215 9.55836 56.7227 9.63679 57.1275 9.63279C57.5316 9.63569 57.932 9.55645 58.3038 9.40002C58.6757 9.24359 59.0111 9.0133 59.2892 8.72341C59.5673 8.43353 59.7822 8.09026 59.9206 7.71485C60.059 7.33945 60.1179 6.93994 60.0936 6.5411Z" fill="black" stroke="black" stroke-miterlimit="10"/>
<path d="M67.8105 5.52362V9.83925H67.5532V8.45635C67.3224 8.9168 66.9586 9.29922 66.5079 9.55528C66.0572 9.81133 65.5398 9.92952 65.0212 9.89489C63.5261 9.89489 62.666 9.15574 62.666 8.051C62.666 7.10522 63.2608 6.27866 65.0775 6.27866H67.5934V5.55541C67.6305 5.27361 67.6015 4.98715 67.5087 4.71821C67.4158 4.44928 67.2616 4.20508 67.058 4.00452C66.8544 3.80396 66.6068 3.65243 66.3345 3.56165C66.0621 3.47088 65.7723 3.44329 65.4874 3.48103C64.5945 3.46701 63.7306 3.79446 63.076 4.39505L62.8911 4.22019C63.5992 3.58472 64.5231 3.23576 65.4794 3.24261C65.792 3.20775 66.1085 3.24258 66.4057 3.34453C66.7029 3.44648 66.9732 3.61297 67.1968 3.83175C67.4204 4.05054 67.5916 4.31608 67.6978 4.60885C67.804 4.90162 67.8425 5.2142 67.8105 5.52362ZM67.5532 7.95563V6.50913H65.0212C63.5181 6.50913 62.9232 7.14497 62.9232 8.01923C62.9232 9.0127 63.7271 9.60878 65.0212 9.60878C65.5677 9.64323 66.1107 9.50043 66.5676 9.20208C67.0246 8.90373 67.3707 8.46609 67.5532 7.95563Z" fill="black" stroke="black" stroke-miterlimit="10"/>
<path d="M30.875 16.4041C30.8769 16.3176 30.9121 16.2349 30.9732 16.173C31.0344 16.111 31.1171 16.0743 31.2046 16.0703C31.2935 16.0723 31.3782 16.1082 31.441 16.1703C31.5039 16.2325 31.5401 16.3162 31.5422 16.4041C31.5401 16.492 31.5039 16.5758 31.441 16.6379C31.3782 16.7001 31.2935 16.7359 31.2046 16.7379C31.1171 16.7339 31.0344 16.6972 30.9732 16.6353C30.9121 16.5733 30.8769 16.4907 30.875 16.4041ZM31.076 18.55H31.3332V25.1308H31.076V18.55Z" fill="black" stroke="black" stroke-miterlimit="10"/>
<path d="M40.0064 21.2206V25.0991H39.7733V21.2206C39.7733 19.5913 38.8891 18.725 37.3619 18.725C36.9849 18.7001 36.6068 18.7555 36.2534 18.8876C35.8999 19.0197 35.5793 19.2253 35.3133 19.4906C35.0473 19.7559 34.842 20.0747 34.7114 20.4253C34.5809 20.7759 34.528 21.1501 34.5565 21.5226V25.0991H34.2993V18.5184H34.5565V20.2748C34.7651 19.7182 35.1503 19.2432 35.6545 18.9208C36.1587 18.5985 36.7548 18.4462 37.3538 18.4866C37.7193 18.4581 38.0867 18.5102 38.4293 18.6391C38.772 18.7681 39.0814 18.9707 39.3352 19.2323C39.589 19.4939 39.7809 19.808 39.897 20.1518C40.013 20.4957 40.0504 20.8607 40.0064 21.2206Z" fill="black" stroke="black" stroke-miterlimit="10"/>
<path d="M53.7434 21.2207V25.0993H53.4862V21.2207C53.4862 19.5914 52.6261 18.7251 51.1712 18.7251C50.799 18.7054 50.427 18.765 50.0802 18.9001C49.7335 19.0351 49.4202 19.2424 49.1617 19.5078C48.9031 19.7732 48.7054 20.0905 48.582 20.4382C48.4585 20.7859 48.4122 21.1558 48.4462 21.5228V25.0993H48.189V21.2207C48.189 19.5914 47.3209 18.7251 45.874 18.7251C45.5015 18.7055 45.1292 18.7652 44.7821 18.9002C44.435 19.0352 44.1212 19.2423 43.8621 19.5076C43.603 19.7728 43.4045 20.09 43.2801 20.4377C43.1557 20.7853 43.1082 21.1554 43.141 21.5228V25.0993H42.8838V18.5185H43.141V20.267C43.3337 19.7167 43.704 19.2443 44.195 18.9226C44.6859 18.6008 45.2703 18.4477 45.8579 18.4867C46.4517 18.4315 47.0444 18.6034 47.5139 18.9671C47.9834 19.3308 48.2941 19.8586 48.3819 20.4418C48.5468 19.8507 48.9125 19.3336 49.4175 18.9776C49.9225 18.6215 50.5361 18.4482 51.1551 18.4867C52.7547 18.4867 53.7434 19.4404 53.7434 21.2207Z" fill="black" stroke="black" stroke-miterlimit="10"/>
<path d="M56.4121 16.4041C56.416 16.3168 56.4529 16.2342 56.5154 16.1724C56.5778 16.1106 56.6614 16.0742 56.7497 16.0703C56.838 16.0742 56.9216 16.1106 56.9841 16.1724C57.0466 16.2342 57.0834 16.3168 57.0873 16.4041C57.0834 16.4914 57.0466 16.5741 56.9841 16.6359C56.9216 16.6976 56.838 16.7341 56.7497 16.7379C56.6614 16.7341 56.5778 16.6976 56.5154 16.6359C56.4529 16.5741 56.416 16.4914 56.4121 16.4041ZM56.6211 18.55H56.8783V25.1308H56.6533L56.6211 18.55Z" fill="black" stroke="black" stroke-miterlimit="10"/>
<path d="M65.5919 18.5186V24.5112C65.5919 26.6412 64.571 27.6029 62.5132 27.6029C61.9727 27.627 61.4328 27.5431 60.9259 27.356C60.419 27.1689 59.9555 26.8825 59.5632 26.514L59.7481 26.3312C60.4959 27.0226 61.4898 27.394 62.5132 27.3644C64.4263 27.3644 65.3266 26.4981 65.3266 24.5509V22.8978C65.0984 23.4981 64.6857 24.0126 64.1465 24.369C63.6072 24.7254 62.9686 24.9058 62.3203 24.8847C61.8913 24.8999 61.4637 24.8285 61.0635 24.6748C60.6634 24.5212 60.2991 24.2885 59.9929 23.9909C59.6868 23.6934 59.4451 23.3374 59.2828 22.9444C59.1205 22.5515 59.0408 22.13 59.0487 21.7056C59.0385 21.2806 59.1165 20.8581 59.278 20.4641C59.4395 20.0701 59.6811 19.7131 59.9878 19.4151C60.2944 19.1171 60.6596 18.8845 61.0608 18.7316C61.462 18.5788 61.8907 18.509 62.3203 18.5265C62.9652 18.5007 63.6021 18.6754 64.1414 19.0261C64.6807 19.3768 65.0952 19.8859 65.3266 20.4817V18.5583L65.5919 18.5186ZM65.3266 21.6977C65.3415 21.3045 65.2737 20.9125 65.1275 20.5465C64.9814 20.1805 64.7601 19.8485 64.4775 19.5714C64.195 19.2943 63.8574 19.0781 63.4861 18.9366C63.1148 18.795 62.7178 18.7312 62.3203 18.749C61.9224 18.7313 61.5251 18.7951 61.1534 18.9366C60.7817 19.078 60.4436 19.2941 60.1604 19.571C59.8773 19.848 59.6552 20.1799 59.5081 20.5459C59.3611 20.9119 59.2922 21.3041 59.306 21.6977C59.2912 22.0923 59.3592 22.4856 59.5056 22.8529C59.6521 23.2203 59.8739 23.5537 60.157 23.8321C60.4402 24.1106 60.7785 24.3281 61.1508 24.4709C61.5231 24.6138 61.9213 24.6789 62.3203 24.6622C62.7211 24.6792 63.121 24.6134 63.4946 24.4691C63.8682 24.3247 64.2073 24.1049 64.4902 23.8237C64.7731 23.5425 64.9936 23.2061 65.1376 22.8359C65.2816 22.4658 65.346 22.07 65.3266 21.6738V21.6977Z" fill="black" stroke="black" stroke-miterlimit="10"/>
<path d="M71.4116 18.4867V18.741H71.3393C69.7316 18.741 68.7992 19.8219 68.7992 21.5625V25.0993H68.542V18.5185H68.7992V20.2273C68.9718 19.688 69.324 19.2224 69.7983 18.9064C70.2727 18.5903 70.8414 18.4424 71.4116 18.4867Z" fill="black" stroke="black" stroke-miterlimit="10"/>
<path d="M77.8422 20.7834V25.099H77.5528V23.7002C77.3253 24.1569 76.967 24.5375 76.5226 24.7946C76.0782 25.0518 75.5671 25.1742 75.053 25.1467C73.5578 25.1467 72.6978 24.4075 72.6978 23.3028C72.6978 22.357 73.2926 21.5305 75.061 21.5305H77.5528V20.8072C77.5899 20.5254 77.5609 20.2389 77.4681 19.97C77.3752 19.7011 77.221 19.4569 77.0174 19.2563C76.8138 19.0558 76.5662 18.9042 76.2939 18.8134C76.0215 18.7227 75.7317 18.6951 75.4468 18.7328C74.5539 18.7188 73.69 19.0462 73.0354 19.6468L72.8505 19.472C73.5586 18.8365 74.4825 18.4875 75.4388 18.4944C75.7577 18.4474 76.0832 18.4735 76.3903 18.5706C76.6974 18.6676 76.9778 18.8331 77.21 19.0542C77.4422 19.2754 77.62 19.5463 77.7296 19.8461C77.8392 20.1458 77.8777 20.4665 77.8422 20.7834ZM77.585 23.2154V21.7689H75.053C73.5498 21.7689 72.955 22.4047 72.955 23.2789C72.955 24.2724 73.7588 24.8685 75.053 24.8685C75.5944 24.8972 76.1306 24.7516 76.5813 24.4536C77.032 24.1555 77.3729 23.7211 77.5528 23.2154H77.585Z" fill="black" stroke="black" stroke-miterlimit="10"/>
<path d="M86.4349 21.2207V25.0992H86.1776V21.2207C86.1776 19.5914 85.2934 18.7251 83.7662 18.7251C83.3892 18.7001 83.0111 18.7555 82.6577 18.8876C82.3042 19.0197 81.9836 19.2254 81.7176 19.4907C81.4516 19.756 81.2463 20.0747 81.1157 20.4253C80.9852 20.7759 80.9323 21.1502 80.9608 21.5227V25.0992H80.7036V18.5185H80.9608V20.2749C81.1694 19.7182 81.5546 19.2432 82.0588 18.9209C82.563 18.5986 83.1591 18.4462 83.7581 18.4867C84.1256 18.4544 84.4956 18.5037 84.8413 18.631C85.187 18.7583 85.4995 18.9603 85.7561 19.2224C86.0126 19.4844 86.2067 19.7999 86.3242 20.1456C86.4416 20.4913 86.4794 20.8586 86.4349 21.2207Z" fill="black" stroke="black" stroke-miterlimit="10"/>
<path d="M92.3268 24.6698C91.9681 24.9829 91.503 25.1504 91.0246 25.1387C90.8089 25.1568 90.5917 25.1282 90.3884 25.0547C90.185 24.9812 90.0003 24.8647 89.8472 24.7133C89.6941 24.562 89.5763 24.3793 89.5019 24.1783C89.4276 23.9772 89.3986 23.7625 89.417 23.5491V18.7805H88.1309V18.5341H89.417V17.1035H89.6742V18.5341H91.9249V18.7884H89.6742V23.4856C89.6452 23.6731 89.6599 23.8647 89.7171 24.0458C89.7743 24.2269 89.8725 24.3928 90.0042 24.5307C90.136 24.6686 90.2978 24.775 90.4774 24.8418C90.657 24.9086 90.8497 24.934 91.0407 24.9162C91.4463 24.9233 91.8397 24.7785 92.1419 24.5108L92.3268 24.6698Z" fill="black" stroke="black" stroke-miterlimit="10"/>
<path d="M99.4246 21.8006H93.5085C93.4895 22.2068 93.5555 22.6126 93.7024 22.9925C93.8493 23.3723 94.0738 23.7182 94.362 24.0084C94.6502 24.2985 94.9959 24.5268 95.3773 24.6789C95.7588 24.831 96.1679 24.9036 96.5791 24.8922C97.011 24.909 97.4408 24.8258 97.8344 24.6492C98.228 24.4726 98.5743 24.2074 98.8459 23.8749L99.0227 24.0577C98.7256 24.4018 98.3555 24.6769 97.9387 24.8637C97.522 25.0505 97.0688 25.1444 96.6112 25.1386C96.1664 25.1535 95.7233 25.0769 95.31 24.9136C94.8967 24.7504 94.5221 24.5041 94.21 24.1903C93.898 23.8765 93.6552 23.5021 93.4971 23.0908C93.339 22.6794 93.2689 22.2401 93.2915 21.8006C93.2595 21.38 93.3152 20.9574 93.4551 20.5589C93.5949 20.1604 93.816 19.7946 94.1045 19.4839C94.3931 19.1733 94.743 18.9245 95.1327 18.7529C95.5224 18.5813 95.9435 18.4906 96.3701 18.4863C96.7926 18.4866 97.2105 18.5724 97.5982 18.7385C97.9859 18.9045 98.3351 19.1473 98.6242 19.4518C98.9134 19.7563 99.1365 20.1162 99.2796 20.5092C99.4228 20.9022 99.4831 21.32 99.4568 21.737L99.4246 21.8006ZM93.5085 21.5621H99.1835C99.1814 20.8143 98.8817 20.0974 98.3492 19.5665C97.8167 19.0355 97.0942 18.7331 96.3379 18.7248C95.5832 18.7332 94.8623 19.036 94.3324 19.5675C93.8024 20.0989 93.5063 20.8158 93.5085 21.5621Z" fill="black" stroke="black" stroke-miterlimit="10"/>
<path d="M100.526 24.2327L100.679 24.026C101.349 24.5958 102.206 24.9039 103.09 24.8923C104.698 24.8923 105.301 24.2962 105.301 23.4299C105.301 21.2284 100.743 22.7305 100.743 20.1793C100.743 19.2971 101.45 18.4864 103.098 18.4864C103.885 18.4725 104.657 18.7063 105.301 19.154L105.148 19.3607C104.554 18.9321 103.833 18.7087 103.098 18.7249C101.635 18.7249 101.016 19.3607 101.016 20.1793C101.016 22.4365 105.558 20.9741 105.558 23.4299C105.558 24.4234 104.754 25.1387 103.09 25.1387C102.151 25.1639 101.236 24.8407 100.526 24.2327Z" fill="black" stroke="black" stroke-miterlimit="10"/>
</g>
<defs>
<clipPath id="clip0_320_19142">
<rect width="106" height="28" fill="white"/>
</clipPath>
</defs>
</svg>
