<svg width="20" height="21" viewBox="0 0 20 21" fill="none" xmlns="http://www.w3.org/2000/svg">
<path d="M14.4671 7.12012L10 9.36502L5.53288 7.12012L0 18.1632L3.44671 17.8231L5.21542 20.7936L10 11.2698L14.7846 20.7936L16.5533 17.8231L20 18.1632L14.4671 7.12012Z" fill="#E24255"/>
<path d="M10.0001 14.6032C14.0326 14.6032 17.3017 11.3342 17.3017 7.30159C17.3017 3.26903 14.0326 0 10.0001 0C5.96751 0 2.69849 3.26903 2.69849 7.30159C2.69849 11.3342 5.96751 14.6032 10.0001 14.6032Z" fill="#FFC54D"/>
<path d="M10.0001 13.0389C13.1686 13.0389 15.7371 10.4703 15.7371 7.3019C15.7371 4.13347 13.1686 1.56494 10.0001 1.56494C6.83171 1.56494 4.26318 4.13347 4.26318 7.3019C4.26318 10.4703 6.83171 13.0389 10.0001 13.0389Z" fill="#E8B04B"/>
<path d="M10.272 3.85464L11.2244 5.7594C11.2698 5.8501 11.3605 5.91813 11.4512 5.94081L13.56 6.25827C13.8095 6.30362 13.9228 6.5984 13.7414 6.77981L12.2222 8.27641C12.1541 8.34443 12.1088 8.45781 12.1315 8.54852L12.4943 10.6574C12.5396 10.9068 12.2675 11.1109 12.0408 10.9748L10.1587 9.97709C10.068 9.93174 9.95459 9.93174 9.86388 9.97709L7.95912 10.9748C7.73236 11.0882 7.46025 10.9068 7.50561 10.6574L7.86842 8.54852C7.89109 8.45781 7.84574 8.34443 7.77772 8.27641L6.25844 6.77981C6.07703 6.5984 6.16774 6.28094 6.43985 6.25827L8.54869 5.94081C8.63939 5.91813 8.7301 5.87278 8.77545 5.7594L9.72783 3.85464C9.84121 3.62788 10.1587 3.62788 10.272 3.85464Z" fill="white"/>
</svg>
