<svg width="28" height="21" viewBox="0 0 28 21" fill="none" xmlns="http://www.w3.org/2000/svg">
<g clip-path="url(#clip0_321_8883)">
<path d="M11.2 0H28V21H11.2V0Z" fill="#FF0000"/>
<path d="M0 0H11.2V21H0V0Z" fill="#006600"/>
<path fill-rule="evenodd" clip-rule="evenodd" d="M14.8531 13.3962C13.44 13.3524 6.97808 9.31869 6.93433 8.67119L7.2887 8.08057C7.93183 9.01244 14.5381 12.9368 15.19 12.7968L14.8531 13.3962Z" fill="#FFFF00" stroke="black" stroke-width="0.075" stroke-linecap="round" stroke-linejoin="round"/>
<path fill-rule="evenodd" clip-rule="evenodd" d="M7.21446 7.99756C7.08758 8.33881 8.90321 9.45881 11.082 10.7888C13.2651 12.1144 15.1463 12.9326 15.282 12.8188L15.3476 12.6963C15.3213 12.7401 15.2601 12.7532 15.1595 12.7226C14.5688 12.5519 13.0332 11.8476 11.1301 10.6926C9.22258 9.53756 7.56883 8.47443 7.31071 8.02381C7.29059 7.98156 7.28155 7.93489 7.28446 7.88818H7.27571L7.22321 7.98443L7.21446 7.99756ZM14.8838 13.4138C14.862 13.4576 14.8138 13.4576 14.7307 13.4488C14.2057 13.3919 12.6045 12.6132 10.7101 11.4801C8.50508 10.1588 6.68508 8.96006 6.88633 8.64506L6.93883 8.54881L6.94758 8.55318C6.77258 9.08693 10.5395 11.2394 10.7626 11.3794C12.9413 12.7269 14.7788 13.5188 14.9407 13.3132L14.8838 13.4138Z" fill="#FFFF00" stroke="black" stroke-width="0.075" stroke-linecap="round" stroke-linejoin="round"/>
<path fill-rule="evenodd" clip-rule="evenodd" d="M11.2089 9.06529C12.6176 9.05217 14.3589 8.87279 15.3651 8.47029L15.1464 8.12029C14.5557 8.44842 12.8057 8.66717 11.1957 8.69779C9.29698 8.68029 7.95386 8.50092 7.28011 8.05029L7.07886 8.42654C8.31261 8.95154 9.58136 9.06092 11.2089 9.06529Z" fill="#FFFF00" stroke="black" stroke-width="0.075" stroke-linecap="round" stroke-linejoin="round"/>
<path fill-rule="evenodd" clip-rule="evenodd" d="M15.4219 8.47887C15.3869 8.53574 14.7307 8.75887 13.7682 8.92512C12.9197 9.05369 12.0626 9.11659 11.2044 9.11324C10.3822 9.11633 9.56075 9.06371 8.74566 8.95574C7.73504 8.79824 7.21441 8.57949 7.01754 8.50074L7.06566 8.40449C7.62129 8.62324 8.14629 8.75449 8.75879 8.85074C9.56793 8.96 10.3836 9.01408 11.2 9.01262C12.0537 9.01351 12.9063 8.95063 13.7507 8.82449C14.735 8.66262 15.2732 8.45699 15.3519 8.36512L15.4219 8.48324V8.47887ZM15.2294 8.12449C15.1244 8.21199 14.5907 8.40012 13.6544 8.54887C12.8459 8.66583 12.0301 8.72432 11.2132 8.72387C10.2507 8.72387 9.45879 8.65387 8.85941 8.56637C7.90566 8.44387 7.39816 8.21637 7.21441 8.15512L7.27129 8.05887C7.41566 8.13324 7.90129 8.33012 8.86816 8.46574C9.64541 8.56985 10.429 8.61956 11.2132 8.61449C12.0242 8.61474 12.8343 8.55626 13.6369 8.43949C14.5775 8.30824 15.085 8.07199 15.1638 8.01074L15.2294 8.12449ZM6.57566 10.7626C7.44191 11.2307 9.37129 11.4626 11.1957 11.4801C12.8582 11.4845 15.0194 11.2264 15.8288 10.7976L15.8069 10.3295C15.5532 10.7232 13.2344 11.1039 11.1782 11.0907C9.12191 11.0732 7.21004 10.7582 6.57129 10.347V10.7626" fill="#FFFF00"/>
<path d="M6.57566 10.7626C7.44191 11.2307 9.37129 11.4626 11.1957 11.4801C12.8582 11.4845 15.0194 11.2264 15.8288 10.7976L15.8069 10.3295C15.5532 10.7232 13.2344 11.1039 11.1782 11.0907C9.12191 11.0732 7.21004 10.7582 6.57129 10.347V10.7626M15.4219 8.47887C15.3869 8.53574 14.7307 8.75887 13.7682 8.92512C12.9197 9.05369 12.0626 9.11659 11.2044 9.11324C10.3822 9.11633 9.56075 9.06371 8.74566 8.95574C7.73504 8.79824 7.21441 8.57949 7.01754 8.50074L7.06566 8.40449C7.62129 8.62324 8.14629 8.75449 8.75879 8.85074C9.56793 8.96 10.3836 9.01408 11.2 9.01262C12.0537 9.01351 12.9063 8.95063 13.7507 8.82449C14.735 8.66262 15.2732 8.45699 15.3519 8.36512L15.4219 8.48324V8.47887ZM15.2294 8.12449C15.1244 8.21199 14.5907 8.40012 13.6544 8.54887C12.8459 8.66583 12.0301 8.72432 11.2132 8.72387C10.2507 8.72387 9.45879 8.65387 8.85941 8.56637C7.90566 8.44387 7.39816 8.21637 7.21441 8.15512L7.27129 8.05887C7.41566 8.13324 7.90129 8.33012 8.86816 8.46574C9.64541 8.56985 10.429 8.61956 11.2132 8.61449C12.0242 8.61474 12.8343 8.55626 13.6369 8.43949C14.5775 8.30824 15.085 8.07199 15.1638 8.01074L15.2294 8.12449Z" stroke="black" stroke-width="0.075" stroke-linecap="round" stroke-linejoin="round"/>
<path fill-rule="evenodd" clip-rule="evenodd" d="M15.8725 10.6969V10.8063C15.75 10.955 14.9888 11.1738 14.035 11.3313C13.0875 11.4675 12.131 11.5318 11.1738 11.5238C10.2661 11.5315 9.35922 11.4686 8.4613 11.3356C7.79129 11.2582 7.13659 11.0813 6.5188 10.8106V10.6838C6.94317 10.9638 8.08942 11.1738 8.47442 11.235C9.16567 11.34 10.0538 11.4188 11.1738 11.4188C12.3507 11.4188 13.2913 11.3356 14.0175 11.2263C14.7044 11.1256 15.68 10.8675 15.8725 10.6969ZM15.8725 10.3031V10.4125C15.75 10.5569 14.9888 10.7756 14.035 10.9331C13.0876 11.0708 12.1311 11.1366 11.1738 11.13C10.2662 11.1354 9.35947 11.0725 8.4613 10.9419C7.79129 10.8645 7.13659 10.6875 6.5188 10.4169V10.2856C6.94317 10.57 8.0938 10.7756 8.47442 10.8369C9.36816 10.9678 10.2705 11.0307 11.1738 11.025C12.3507 11.025 13.2957 10.9375 14.0175 10.8281C14.7044 10.7319 15.68 10.4738 15.8725 10.3031ZM11.1913 13.3131C9.1963 13.3044 7.48567 12.7706 7.12255 12.6831L7.38505 13.0944C8.6122 13.529 9.90713 13.7409 11.2088 13.72C12.7269 13.6763 14.0525 13.5581 14.9844 13.1031L15.2557 12.6744C14.6213 12.9763 12.4557 13.3131 11.1869 13.3131" fill="#FFFF00"/>
<path d="M11.1913 13.3131C9.1963 13.3044 7.48567 12.7706 7.12255 12.6831L7.38505 13.0944C8.6122 13.529 9.90713 13.7409 11.2088 13.72C12.7269 13.6763 14.0525 13.5581 14.9844 13.1031L15.2557 12.6744C14.6213 12.9763 12.4557 13.3131 11.1869 13.3131M15.8725 10.6969V10.8063C15.75 10.955 14.9888 11.1738 14.035 11.3313C13.0875 11.4675 12.131 11.5318 11.1738 11.5238C10.2661 11.5315 9.35922 11.4686 8.4613 11.3356C7.79129 11.2582 7.13659 11.0813 6.5188 10.8106V10.6838C6.94317 10.9638 8.08942 11.1738 8.47442 11.235C9.16567 11.34 10.0538 11.4188 11.1738 11.4188C12.3507 11.4188 13.2913 11.3356 14.0175 11.2263C14.7044 11.1256 15.68 10.8675 15.8725 10.6969ZM15.8725 10.3031V10.4125C15.75 10.5569 14.9888 10.7756 14.035 10.9331C13.0876 11.0708 12.1311 11.1366 11.1738 11.13C10.2662 11.1354 9.35947 11.0725 8.4613 10.9419C7.79129 10.8645 7.13659 10.6875 6.5188 10.4169V10.2856C6.94317 10.57 8.0938 10.7756 8.47442 10.8369C9.36816 10.9678 10.2705 11.0307 11.1738 11.025C12.3507 11.025 13.2957 10.9375 14.0175 10.8281C14.7044 10.7319 15.68 10.4738 15.8725 10.3031Z" stroke="black" stroke-width="0.075" stroke-linecap="round" stroke-linejoin="round"/>
<path fill-rule="evenodd" clip-rule="evenodd" d="M15.0893 13.0071C15.0495 13.0661 15.0087 13.1244 14.9668 13.1821C14.5293 13.3396 13.8293 13.5058 13.5406 13.5496C12.7658 13.6939 11.9794 13.7672 11.1912 13.7683C9.4237 13.7421 7.97558 13.3964 7.29745 13.0989L7.24058 13.0071L7.24933 12.9896L7.3412 13.0289C8.58634 13.441 9.88843 13.655 11.2 13.6633C12.0225 13.6633 12.8406 13.5714 13.5012 13.4533C14.5162 13.2477 14.9275 13.0946 15.0543 13.0246L15.085 13.0071H15.0893ZM15.3212 12.6221C15.2924 12.6733 15.2632 12.7243 15.2337 12.7752C14.9975 12.8627 14.3587 13.0464 13.4268 13.1777C12.8143 13.2608 12.4337 13.3439 11.2131 13.3658C9.81772 13.3518 8.43095 13.1457 7.09183 12.7533L7.0437 12.6439C8.40426 13.02 9.80622 13.2257 11.2175 13.2564C12.3331 13.2346 12.81 13.1514 13.4181 13.0683C14.5031 12.9021 15.05 12.7183 15.2118 12.6702C15.2119 12.6673 15.2119 12.6643 15.2118 12.6614L15.3256 12.6177L15.3212 12.6221Z" fill="#FFFF00" stroke="black" stroke-width="0.075" stroke-linecap="round" stroke-linejoin="round"/>
<path fill-rule="evenodd" clip-rule="evenodd" d="M15.3475 10.395C15.3519 11.7075 14.6782 12.8887 14.14 13.405C13.3453 14.1802 12.2839 14.6216 11.1738 14.6388C9.84817 14.6606 8.6013 13.7988 8.26442 13.4181C7.5108 12.6189 7.08187 11.5677 7.0613 10.4694C7.14005 9.03438 7.70442 8.03688 8.51817 7.35C9.30867 6.69925 10.3031 6.34765 11.3269 6.35688C11.9246 6.38585 12.5096 6.53936 13.0445 6.80757C13.5794 7.07577 14.0524 7.45276 14.4332 7.91437C14.98 8.57937 15.2207 9.30125 15.3475 10.395ZM11.1825 5.90625C12.4064 5.90622 13.5807 6.39 14.4494 7.25214C15.3181 8.11429 15.8108 9.28488 15.82 10.5087C15.82 11.116 15.7004 11.7174 15.468 12.2784C15.2356 12.8395 14.895 13.3493 14.4656 13.7787C14.0362 14.2081 13.5264 14.5487 12.9653 14.7811C12.4043 15.0135 11.803 15.1331 11.1957 15.1331C10.5884 15.1331 9.98705 15.0135 9.426 14.7811C8.86494 14.5487 8.35516 14.2081 7.92574 13.7787C7.49633 13.3493 7.1557 12.8395 6.92331 12.2784C6.69091 11.7174 6.5713 11.116 6.5713 10.5087C6.56692 7.97125 8.64067 5.90625 11.1825 5.90625Z" fill="#FFFF00" stroke="black" stroke-width="0.075" stroke-linecap="round" stroke-linejoin="round"/>
<path fill-rule="evenodd" clip-rule="evenodd" d="M11.1957 5.88428C13.742 5.88428 15.8157 7.95803 15.8157 10.5043C15.8157 13.0505 13.742 15.1243 11.2001 15.1243C8.6582 15.1243 6.58008 13.0505 6.58008 10.5043C6.58008 7.95803 8.65383 5.88428 11.2001 5.88428H11.1957ZM6.67633 10.4999C6.67633 12.9849 8.71945 15.0193 11.1957 15.0193C13.672 15.0193 15.7151 12.9849 15.7151 10.4999C15.7151 8.0149 13.672 5.98053 11.1957 5.98053C8.71945 5.98053 6.67633 8.0149 6.67633 10.4999Z" fill="#FFFF00" stroke="black" stroke-width="0.075" stroke-linecap="round" stroke-linejoin="round"/>
<path fill-rule="evenodd" clip-rule="evenodd" d="M11.2001 6.26953C12.3211 6.27299 13.3951 6.71983 14.1878 7.51248C14.9804 8.30512 15.4273 9.37919 15.4307 10.5002C15.4273 11.6215 14.9806 12.696 14.1881 13.4894C13.3955 14.2827 12.3215 14.7305 11.2001 14.7352C8.88136 14.7352 6.96948 12.8277 6.96948 10.5002C6.97409 9.37954 7.42129 8.30614 8.21369 7.51374C9.00609 6.72134 10.0795 6.27414 11.2001 6.26953ZM7.07011 10.5002C7.07011 12.7752 8.93386 14.6302 11.2001 14.6302C13.4664 14.6302 15.3301 12.7708 15.3301 10.5002C15.3301 8.22516 13.4664 6.37016 11.2001 6.37016C10.1062 6.37476 9.05837 6.81136 8.28484 7.58489C7.51132 8.35842 7.07471 9.40623 7.07011 10.5002Z" fill="#FFFF00" stroke="black" stroke-width="0.075" stroke-linecap="round" stroke-linejoin="round"/>
<path fill-rule="evenodd" clip-rule="evenodd" d="M11.3881 5.86279H10.99V15.1509H11.3837L11.3881 5.86279Z" fill="#FFFF00" stroke="black" stroke-width="0.075" stroke-linecap="round" stroke-linejoin="round"/>
<path fill-rule="evenodd" clip-rule="evenodd" d="M11.3444 5.81006H11.4451V15.2032H11.3488V5.81006H11.3444ZM10.9507 5.81006H11.0557V15.2032H10.9551V5.81006H10.9507Z" fill="#FFFF00" stroke="black" stroke-width="0.075" stroke-linecap="round" stroke-linejoin="round"/>
<path fill-rule="evenodd" clip-rule="evenodd" d="M15.82 10.6838V10.3426L15.54 10.0801L13.9519 9.6601L11.6681 9.42822L8.91186 9.56822L6.95186 10.032L6.55811 10.3251V10.6707L7.55998 10.2201L9.93998 9.84822H12.2281L13.9081 10.032L15.0719 10.312L15.82 10.6838Z" fill="#FFFF00" stroke="black" stroke-width="0.075" stroke-linecap="round" stroke-linejoin="round"/>
<path fill-rule="evenodd" clip-rule="evenodd" d="M11.2 9.79118C12.2894 9.79118 13.3438 9.89181 14.1882 10.0537C15.0544 10.2287 15.6625 10.4474 15.8725 10.6881V10.8106C15.6188 10.5043 14.8007 10.2856 14.1663 10.1543C13.335 9.99681 12.285 9.89181 11.1957 9.89181C10.0538 9.89181 8.9863 10.0056 8.1638 10.1631C7.50755 10.2943 6.62817 10.5568 6.5188 10.8106V10.6837C6.57567 10.5087 7.23192 10.2462 8.15067 10.0581C8.97755 9.89618 10.045 9.79118 11.1957 9.79118H11.2ZM11.2 9.39306C12.2019 9.39105 13.202 9.4789 14.1882 9.65556C15.0544 9.83056 15.6625 10.0493 15.8725 10.2943V10.4124C15.6188 10.1106 14.8007 9.88743 14.1663 9.76056C13.335 9.59868 12.285 9.49806 11.1957 9.49806C10.1803 9.49484 9.16681 9.58565 8.16817 9.76931C7.5338 9.88743 6.61942 10.1587 6.5188 10.4124V10.2899C6.58005 10.1149 7.24505 9.83931 8.15067 9.66431C8.98192 9.50243 10.045 9.39306 11.2 9.39306ZM11.1738 7.37181C12.8932 7.36306 14.3938 7.61243 15.0807 7.96243L15.33 8.39993C14.735 8.07618 13.1163 7.74368 11.1782 7.78743C9.5988 7.80056 7.91005 7.96243 7.06567 8.41743L7.36317 7.91868C8.0588 7.55556 9.69505 7.37181 11.1738 7.37181Z" fill="#FFFF00" stroke="black" stroke-width="0.075" stroke-linecap="round" stroke-linejoin="round"/>
<path fill-rule="evenodd" clip-rule="evenodd" d="M11.2002 7.73059C12.0979 7.71545 12.9952 7.77839 13.882 7.91872C14.582 8.04997 15.2514 8.24247 15.3477 8.34747L15.422 8.47872C15.1902 8.32997 14.6083 8.15934 13.8645 8.01934C13.1208 7.87934 12.1714 7.83122 11.1958 7.83559C10.0889 7.83122 9.22703 7.88809 8.49203 8.01934C7.98536 8.09036 7.49344 8.24251 7.03516 8.46997L7.10953 8.33434C7.37203 8.20309 7.77891 8.04122 8.47016 7.91434C9.23578 7.77434 10.1064 7.73497 11.2002 7.73059ZM11.2002 7.33684C12.1364 7.32809 13.0639 7.38059 13.7858 7.51184C14.2535 7.58128 14.7061 7.72919 15.1245 7.94934L15.2339 8.12434C15.0502 7.91872 14.3589 7.72184 13.742 7.61684C13.0245 7.48997 12.1364 7.44184 11.2002 7.43309C10.3286 7.42533 9.45794 7.48971 8.59703 7.62559C8.14688 7.68832 7.70968 7.82273 7.30203 8.02372L7.39828 7.87934C7.65203 7.74809 8.06328 7.62559 8.57953 7.52497C9.44612 7.3873 10.3228 7.32291 11.2002 7.33247V7.33684ZM13.4927 12.425C12.7343 12.2937 11.9652 12.2351 11.1958 12.25C8.33016 12.285 7.40703 12.8406 7.29328 13.0068L7.07453 12.6568C7.80953 12.1318 9.36703 11.8343 11.2133 11.8606C12.1714 11.8781 12.9983 11.9437 13.6895 12.0793L13.4927 12.4293" fill="#FFFF00"/>
<path d="M13.4927 12.425C12.7343 12.2937 11.9652 12.2351 11.1958 12.25C8.33016 12.285 7.40703 12.8406 7.29328 13.0068L7.07453 12.6568C7.80953 12.1318 9.36703 11.8343 11.2133 11.8606C12.1714 11.8781 12.9983 11.9437 13.6895 12.0793L13.4927 12.4293M11.2002 7.73059C12.0979 7.71545 12.9952 7.77839 13.882 7.91872C14.582 8.04997 15.2514 8.24247 15.3477 8.34747L15.422 8.47872C15.1902 8.32997 14.6083 8.15934 13.8645 8.01934C13.1208 7.87934 12.1714 7.83122 11.1958 7.83559C10.0889 7.83122 9.22703 7.88809 8.49203 8.01934C7.98536 8.09036 7.49344 8.24251 7.03516 8.46997L7.10953 8.33434C7.37203 8.20309 7.77891 8.04122 8.47016 7.91434C9.23578 7.77434 10.1064 7.73497 11.2002 7.73059ZM11.2002 7.33684C12.1364 7.32809 13.0639 7.38059 13.7858 7.51184C14.2535 7.58128 14.7061 7.72919 15.1245 7.94934L15.2339 8.12434C15.0502 7.91872 14.3589 7.72184 13.742 7.61684C13.0245 7.48997 12.1364 7.44184 11.2002 7.43309C10.3286 7.42533 9.45794 7.48971 8.59703 7.62559C8.14688 7.68832 7.70968 7.82273 7.30203 8.02372L7.39828 7.87934C7.65203 7.74809 8.06328 7.62559 8.57953 7.52497C9.44612 7.3873 10.3228 7.32291 11.2002 7.33247V7.33684Z" stroke="black" stroke-width="0.075" stroke-linecap="round" stroke-linejoin="round"/>
<path fill-rule="evenodd" clip-rule="evenodd" d="M11.1824 12.2018C11.9787 12.2149 12.7574 12.2456 13.5143 12.3856L13.4618 12.4818C12.7618 12.3506 12.0093 12.3068 11.1868 12.3068C10.1237 12.2981 9.05618 12.3987 8.12431 12.6656C7.83118 12.7487 7.34556 12.9368 7.29306 13.0943L7.24056 13.0068C7.25806 12.9106 7.54681 12.7181 8.09806 12.5693C9.16556 12.2631 10.1631 12.2062 11.1824 12.2018ZM11.2174 11.7993C12.0579 11.7985 12.8967 11.8717 13.7243 12.0181L13.6674 12.1187C12.8593 11.9705 12.039 11.8987 11.2174 11.9043C10.1587 11.9043 9.03431 11.9831 8.01056 12.2806C7.68243 12.3768 7.10931 12.5868 7.09181 12.7487L7.03931 12.6524C7.04806 12.5037 7.54243 12.3068 7.98868 12.1799C9.01681 11.8781 10.1456 11.8037 11.2174 11.7993Z" fill="#FFFF00" stroke="black" stroke-width="0.075" stroke-linecap="round" stroke-linejoin="round"/>
<path fill-rule="evenodd" clip-rule="evenodd" d="M15.2862 12.7094L14.945 13.2476L13.9518 12.3682L11.3881 10.6401L8.49184 9.05193L6.99121 8.54006L7.31059 7.94506L7.41996 7.88818L8.35184 8.12006L11.4318 9.70818L13.2081 10.8282L14.7 11.9001L15.3081 12.6001L15.2862 12.7094Z" fill="#FFFF00" stroke="black" stroke-width="0.075" stroke-linecap="round" stroke-linejoin="round"/>
<path fill-rule="evenodd" clip-rule="evenodd" d="M6.93871 8.55309C7.20121 8.37809 9.13496 9.23559 11.165 10.4606C13.1818 11.6856 15.1156 13.0681 14.9406 13.3262L14.8837 13.4181L14.8575 13.44C14.8618 13.4356 14.8925 13.3962 14.8575 13.3043C14.77 13.02 13.3962 11.9262 11.1256 10.5525C8.90746 9.23559 7.06121 8.43934 6.88184 8.66684L6.93871 8.55309ZM15.3562 12.705C15.5225 12.3725 13.7287 11.0206 11.5018 9.70372C9.22684 8.41309 7.58184 7.65184 7.27996 7.87934L7.21871 8.00622C7.21871 8.01059 7.21871 7.99747 7.23621 7.98434C7.28871 7.94059 7.38059 7.94059 7.41996 7.94059C7.93621 7.94934 9.41059 8.62747 11.48 9.81309C12.39 10.3381 15.3125 12.2193 15.2993 12.7443C15.2993 12.7881 15.3037 12.7968 15.2862 12.8231L15.3606 12.7093L15.3562 12.705Z" fill="#FFFF00" stroke="black" stroke-width="0.075" stroke-linecap="round" stroke-linejoin="round"/>
<path d="M8.42798 11.0146C8.42867 11.3769 8.50121 11.7354 8.64139 12.0694C8.78157 12.4035 8.98661 12.7064 9.24465 12.9606C9.49954 13.2195 9.80312 13.4253 10.1379 13.5662C10.4727 13.7072 10.8321 13.7805 11.1953 13.782C11.9305 13.7819 12.6355 13.4898 13.1553 12.97C13.4125 12.7143 13.6165 12.4104 13.7559 12.0756C13.8952 11.7409 13.9671 11.3819 13.9673 11.0193V7.3233L8.42798 7.31396V11.0146Z" fill="white" stroke="black" stroke-width="0.0933336"/>
<path d="M8.53076 11.0191C8.53175 11.3666 8.60153 11.7104 8.73609 12.0308C8.87066 12.3512 9.06733 12.6418 9.31476 12.8857C9.81161 13.3852 10.4863 13.6671 11.1908 13.6697C11.894 13.6701 12.5687 13.3915 13.0668 12.8951C13.3134 12.6507 13.5092 12.36 13.6429 12.0396C13.7767 11.7192 13.8457 11.3756 13.8461 11.0284V7.43506H8.54009V11.0191M12.7868 8.51306V10.7951L12.7821 11.0331C12.7837 11.2416 12.7432 11.4482 12.663 11.6407C12.5828 11.8331 12.4646 12.0074 12.3154 12.1531C12.0187 12.4509 11.6159 12.6187 11.1954 12.6197C10.7568 12.6197 10.3694 12.4331 10.0801 12.1437C9.7823 11.847 9.61446 11.4442 9.61343 11.0237V8.50373L12.7868 8.51306Z" fill="#FF0000"/>
<path d="M8.53076 11.0191C8.53175 11.3666 8.60153 11.7104 8.73609 12.0308C8.87066 12.3512 9.06733 12.6418 9.31476 12.8857C9.81161 13.3852 10.4863 13.6671 11.1908 13.6697C11.894 13.6701 12.5687 13.3915 13.0668 12.8951C13.3134 12.6507 13.5092 12.36 13.6429 12.0396C13.7767 11.7192 13.8457 11.3756 13.8461 11.0284V7.43506H8.54009V11.0191M12.7868 8.51306V10.7951L12.7821 11.0331C12.7837 11.2416 12.7432 11.4482 12.663 11.6407C12.5828 11.8331 12.4646 12.0074 12.3154 12.1531C12.0187 12.4509 11.6159 12.6187 11.1954 12.6197C10.7568 12.6197 10.3694 12.4331 10.0801 12.1437C9.7823 11.847 9.61446 11.4442 9.61343 11.0237V8.50373L12.7868 8.51306Z" stroke="black" stroke-width="0.0666669"/>
<path d="M8.87598 8.37349C8.88064 8.11682 9.06264 8.05615 9.06264 8.05615C9.06731 8.05615 9.26331 8.12149 9.26331 8.37815H8.87598" fill="#FFFF00"/>
<path d="M8.71725 8.06082L8.68458 8.35482H8.88058C8.88058 8.11215 9.06725 8.07482 9.06725 8.07482C9.07191 8.07482 9.25391 8.12615 9.25858 8.35482H9.45458L9.41725 8.05615H8.71725V8.06082ZM8.67058 8.35949H9.46391C9.47791 8.35949 9.49191 8.37349 9.49191 8.39215C9.49191 8.41549 9.47791 8.42949 9.46391 8.42949H8.67058C8.65658 8.42949 8.64258 8.41549 8.64258 8.39215C8.64258 8.37349 8.65658 8.35949 8.67524 8.35949H8.67058Z" fill="#FFFF00" stroke="black" stroke-width="0.0666669"/>
<path d="M8.9598 8.35471C8.9598 8.20071 9.06713 8.15871 9.06713 8.15871C9.06713 8.15871 9.17447 8.20537 9.17447 8.35471H8.9598ZM8.68913 7.93471H9.4498C9.4638 7.93471 9.4778 7.95337 9.4778 7.97204C9.4778 7.98604 9.4638 8.00004 9.4498 8.00004H8.68913C8.67513 8.00004 8.66113 7.98604 8.66113 7.96737C8.66113 7.95337 8.67513 7.93937 8.68913 7.93937V7.93471ZM8.7078 8.00471H9.42647C9.44047 8.00471 9.45447 8.01871 9.45447 8.03737C9.45447 8.05604 9.44047 8.07004 9.42647 8.07004H8.70313C8.68447 8.07004 8.67513 8.05604 8.67513 8.03737C8.67513 8.01871 8.68447 8.00471 8.70313 8.00471H8.7078ZM8.94113 7.51004H8.99713V7.54737H9.03913V7.51004H9.0998V7.55204H9.1418V7.50537H9.1978V7.5987C9.1978 7.61737 9.18847 7.6267 9.17447 7.6267H8.96913C8.95513 7.6267 8.94113 7.61737 8.94113 7.60337V7.51004ZM9.1558 7.63604L9.1698 7.93471H8.96913L8.98313 7.63137H9.1558" fill="#FFFF00"/>
<path d="M9.1558 7.63604L9.1698 7.93471H8.96913L8.98313 7.63137H9.1558M8.9598 8.35471C8.9598 8.20071 9.06713 8.15871 9.06713 8.15871C9.06713 8.15871 9.17447 8.20537 9.17447 8.35471H8.9598ZM8.68913 7.93471H9.4498C9.4638 7.93471 9.4778 7.95337 9.4778 7.97204C9.4778 7.98604 9.4638 8.00004 9.4498 8.00004H8.68913C8.67513 8.00004 8.66113 7.98604 8.66113 7.96737C8.66113 7.95337 8.67513 7.93937 8.68913 7.93937V7.93471ZM8.7078 8.00471H9.42647C9.44047 8.00471 9.45447 8.01871 9.45447 8.03737C9.45447 8.05604 9.44047 8.07004 9.42647 8.07004H8.70313C8.68447 8.07004 8.67513 8.05604 8.67513 8.03737C8.67513 8.01871 8.68447 8.00471 8.70313 8.00471H8.7078ZM8.94113 7.51004H8.99713V7.54737H9.03913V7.51004H9.0998V7.55204H9.1418V7.50537H9.1978V7.5987C9.1978 7.61737 9.18847 7.6267 9.17447 7.6267H8.96913C8.95513 7.6267 8.94113 7.61737 8.94113 7.60337V7.51004Z" stroke="black" stroke-width="0.0666669"/>
<path d="M8.91323 7.77588V7.93455H8.72656V7.77588H8.91323Z" fill="#FFFF00" stroke="black" stroke-width="0.0666669"/>
<path d="M8.91323 7.77588V7.93455H8.72656V7.77588H8.91323Z" fill="#FFFF00" stroke="black" stroke-width="0.0666669"/>
<path d="M8.69385 7.65479H8.74985V7.70145H8.79185V7.65479H8.84785V7.70145H8.88985V7.65479H8.94585V7.74812C8.94585 7.76679 8.93651 7.77612 8.92251 7.77612H8.72185C8.71442 7.77612 8.7073 7.77317 8.70205 7.76792C8.6968 7.76267 8.69385 7.75554 8.69385 7.74812V7.65479Z" fill="#FFFF00" stroke="black" stroke-width="0.0666669"/>
<path d="M8.69385 7.65479H8.74985V7.70145H8.79185V7.65479H8.84785V7.70145H8.88985V7.65479H8.94585V7.74812C8.94585 7.76679 8.93651 7.77612 8.92251 7.77612H8.72185C8.71442 7.77612 8.7073 7.77317 8.70205 7.76792C8.6968 7.76267 8.69385 7.75554 8.69385 7.74812V7.65479Z" fill="#FFFF00" stroke="black" stroke-width="0.0666669"/>
<path d="M9.04858 7.7295C9.04858 7.7015 9.09058 7.7015 9.09058 7.7295V7.80416H9.04858V7.7295Z" fill="black"/>
<path d="M8.80127 7.83204C8.80127 7.80404 8.8386 7.80404 8.8386 7.83204V7.88804H8.80127V7.83204Z" fill="black"/>
<path d="M8.80127 7.83204C8.80127 7.80404 8.8386 7.80404 8.8386 7.83204V7.88804H8.80127V7.83204Z" fill="black"/>
<path d="M8.87598 8.37349C8.88064 8.11682 9.06264 8.05615 9.06264 8.05615C9.06731 8.05615 9.26331 8.12149 9.26331 8.37815H8.87598" fill="#FFFF00"/>
<path d="M8.71725 8.06082L8.68458 8.35482H8.88058C8.88058 8.11215 9.06725 8.07482 9.06725 8.07482C9.07191 8.07482 9.25391 8.12615 9.25858 8.35482H9.45458L9.41725 8.05615H8.71725V8.06082ZM8.67058 8.35949H9.46391C9.47791 8.35949 9.49191 8.37349 9.49191 8.39215C9.49191 8.41549 9.47791 8.42949 9.46391 8.42949H8.67058C8.65658 8.42949 8.64258 8.41549 8.64258 8.39215C8.64258 8.37349 8.65658 8.35949 8.67524 8.35949H8.67058Z" fill="#FFFF00" stroke="black" stroke-width="0.0666669"/>
<path d="M8.9598 8.35471C8.9598 8.20071 9.06713 8.15871 9.06713 8.15871C9.06713 8.15871 9.17447 8.20537 9.17447 8.35471H8.9598ZM8.68913 7.93471H9.4498C9.4638 7.93471 9.4778 7.95337 9.4778 7.97204C9.4778 7.98604 9.4638 8.00004 9.4498 8.00004H8.68913C8.67513 8.00004 8.66113 7.98604 8.66113 7.96737C8.66113 7.95337 8.67513 7.93937 8.68913 7.93937V7.93471ZM8.7078 8.00471H9.42647C9.44047 8.00471 9.45447 8.01871 9.45447 8.03737C9.45447 8.05604 9.44047 8.07004 9.42647 8.07004H8.70313C8.68447 8.07004 8.67513 8.05604 8.67513 8.03737C8.67513 8.01871 8.68447 8.00471 8.70313 8.00471H8.7078ZM8.94113 7.51004H8.99713V7.54737H9.03913V7.51004H9.0998V7.55204H9.1418V7.50537H9.1978V7.5987C9.1978 7.61737 9.18847 7.6267 9.17447 7.6267H8.96913C8.95513 7.6267 8.94113 7.61737 8.94113 7.60337V7.51004ZM9.1558 7.63604L9.1698 7.93471H8.96913L8.98313 7.63137H9.1558" fill="#FFFF00"/>
<path d="M9.1558 7.63604L9.1698 7.93471H8.96913L8.98313 7.63137H9.1558M8.9598 8.35471C8.9598 8.20071 9.06713 8.15871 9.06713 8.15871C9.06713 8.15871 9.17447 8.20537 9.17447 8.35471H8.9598ZM8.68913 7.93471H9.4498C9.4638 7.93471 9.4778 7.95337 9.4778 7.97204C9.4778 7.98604 9.4638 8.00004 9.4498 8.00004H8.68913C8.67513 8.00004 8.66113 7.98604 8.66113 7.96737C8.66113 7.95337 8.67513 7.93937 8.68913 7.93937V7.93471ZM8.7078 8.00471H9.42647C9.44047 8.00471 9.45447 8.01871 9.45447 8.03737C9.45447 8.05604 9.44047 8.07004 9.42647 8.07004H8.70313C8.68447 8.07004 8.67513 8.05604 8.67513 8.03737C8.67513 8.01871 8.68447 8.00471 8.70313 8.00471H8.7078ZM8.94113 7.51004H8.99713V7.54737H9.03913V7.51004H9.0998V7.55204H9.1418V7.50537H9.1978V7.5987C9.1978 7.61737 9.18847 7.6267 9.17447 7.6267H8.96913C8.95513 7.6267 8.94113 7.61737 8.94113 7.60337V7.51004Z" stroke="black" stroke-width="0.0666669"/>
<path d="M8.91323 7.77588V7.93455H8.72656V7.77588H8.91323Z" fill="#FFFF00" stroke="black" stroke-width="0.0666669"/>
<path d="M8.91323 7.77588V7.93455H8.72656V7.77588H8.91323Z" fill="#FFFF00" stroke="black" stroke-width="0.0666669"/>
<path d="M8.69385 7.65479H8.74985V7.70145H8.79185V7.65479H8.84785V7.70145H8.88985V7.65479H8.94585V7.74812C8.94585 7.76679 8.93651 7.77612 8.92251 7.77612H8.72185C8.71442 7.77612 8.7073 7.77317 8.70205 7.76792C8.6968 7.76267 8.69385 7.75554 8.69385 7.74812V7.65479Z" fill="#FFFF00" stroke="black" stroke-width="0.0666669"/>
<path d="M8.69385 7.65479H8.74985V7.70145H8.79185V7.65479H8.84785V7.70145H8.88985V7.65479H8.94585V7.74812C8.94585 7.76679 8.93651 7.77612 8.92251 7.77612H8.72185C8.71442 7.77612 8.7073 7.77317 8.70205 7.76792C8.6968 7.76267 8.69385 7.75554 8.69385 7.74812V7.65479Z" fill="#FFFF00" stroke="black" stroke-width="0.0666669"/>
<path d="M9.04858 7.7295C9.04858 7.7015 9.09058 7.7015 9.09058 7.7295V7.80416H9.04858V7.7295Z" fill="black"/>
<path d="M8.80127 7.83204C8.80127 7.80404 8.8386 7.80404 8.8386 7.83204V7.88804H8.80127V7.83204Z" fill="black"/>
<path d="M8.80127 7.83204C8.80127 7.80404 8.8386 7.80404 8.8386 7.83204V7.88804H8.80127V7.83204Z" fill="black"/>
<path d="M9.71809 12.7861C9.53926 12.6019 9.62445 12.43 9.62445 12.43C9.62774 12.4267 9.81221 12.3337 9.99433 12.5146L9.7214 12.7894" fill="#FFFF00"/>
<path d="M9.38429 12.6783L9.56989 12.9087L9.708 12.7696C9.53581 12.5986 9.64085 12.4398 9.64085 12.4398C9.64414 12.4365 9.80881 12.3436 9.97435 12.5014L10.1125 12.3623L9.87423 12.1783L9.38098 12.675L9.38429 12.6783ZM9.56334 12.9219L10.1223 12.359C10.1322 12.349 10.152 12.349 10.1653 12.3621C10.1818 12.3786 10.1819 12.3984 10.172 12.4083L9.61301 12.9712C9.60314 12.9812 9.58334 12.9812 9.56679 12.9648C9.55354 12.9516 9.55347 12.9318 9.56662 12.9186L9.56334 12.9219Z" fill="#FFFF00" stroke="black" stroke-width="0.0666669"/>
<path d="M9.76404 12.7132C9.65477 12.6047 9.7006 12.4989 9.7006 12.4989C9.7006 12.4989 9.80934 12.4557 9.9153 12.5609L9.76404 12.7132ZM9.2753 12.6093L9.81129 12.0696C9.82116 12.0596 9.84427 12.0629 9.85751 12.076C9.86745 12.0859 9.86752 12.1057 9.85765 12.1156L9.32166 12.6554C9.31179 12.6653 9.292 12.6654 9.27875 12.6522C9.26882 12.6423 9.26875 12.6225 9.27861 12.6126L9.2753 12.6093ZM9.33812 12.6454L9.84452 12.1354C9.85439 12.1255 9.87419 12.1254 9.88743 12.1386C9.90068 12.1518 9.90075 12.1716 9.89088 12.1815L9.38119 12.6947C9.36804 12.708 9.35153 12.7047 9.33828 12.6916C9.32504 12.6784 9.32168 12.662 9.33484 12.6487L9.33812 12.6454ZM9.15154 12.1313L9.191 12.0915L9.21749 12.1178L9.24708 12.088L9.22059 12.0617L9.26334 12.0187L9.29314 12.0483L9.32274 12.0185L9.28962 11.9856L9.32908 11.9459L9.39531 12.0116C9.40855 12.0248 9.4086 12.038 9.39874 12.0479L9.25405 12.1936C9.24419 12.2035 9.2277 12.2069 9.21776 12.197L9.15154 12.1313ZM9.39221 12.0677L9.614 12.2682L9.4726 12.4106L9.26723 12.187L9.38889 12.0644" fill="#FFFF00"/>
<path d="M9.39221 12.0677L9.614 12.2682L9.4726 12.4106L9.26723 12.187L9.38889 12.0644M9.76404 12.7132C9.65477 12.6047 9.7006 12.4989 9.7006 12.4989C9.7006 12.4989 9.80934 12.4557 9.9153 12.5609L9.76404 12.7132ZM9.2753 12.6093L9.81129 12.0696C9.82116 12.0596 9.84427 12.0629 9.85751 12.076C9.86745 12.0859 9.86752 12.1057 9.85765 12.1156L9.32166 12.6554C9.31179 12.6653 9.292 12.6654 9.27875 12.6522C9.26882 12.6423 9.26875 12.6225 9.27861 12.6126L9.2753 12.6093ZM9.33812 12.6454L9.84452 12.1354C9.85439 12.1255 9.87419 12.1254 9.88743 12.1386C9.90068 12.1518 9.90075 12.1716 9.89088 12.1815L9.38119 12.6947C9.36804 12.708 9.35153 12.7047 9.33828 12.6916C9.32504 12.6784 9.32168 12.662 9.33484 12.6487L9.33812 12.6454ZM9.15154 12.1313L9.191 12.0915L9.21749 12.1178L9.24708 12.088L9.22059 12.0617L9.26334 12.0187L9.29314 12.0483L9.32274 12.0185L9.28962 11.9856L9.32908 11.9459L9.39531 12.0116C9.40855 12.0248 9.4086 12.038 9.39874 12.0479L9.25405 12.1936C9.24419 12.2035 9.2277 12.2069 9.21776 12.197L9.15154 12.1313Z" stroke="black" stroke-width="0.0666669"/>
<path d="M9.3205 12.3387L9.43308 12.4505L9.30155 12.583L9.18896 12.4712L9.3205 12.3387Z" fill="#FFFF00" stroke="black" stroke-width="0.0666669"/>
<path d="M9.3205 12.3387L9.43308 12.4505L9.30155 12.583L9.18896 12.4712L9.3205 12.3387Z" fill="#FFFF00" stroke="black" stroke-width="0.0666669"/>
<path d="M9.07983 12.4087L9.11929 12.369L9.15241 12.4018L9.182 12.372L9.14889 12.3392L9.18835 12.2994L9.22146 12.3323L9.25106 12.3025L9.21794 12.2696L9.2574 12.2299L9.32363 12.2956C9.33687 12.3088 9.33692 12.322 9.32706 12.3319L9.18566 12.4743C9.18043 12.4796 9.17331 12.4826 9.16589 12.4826C9.15846 12.4826 9.15133 12.4797 9.14606 12.4745L9.07983 12.4087Z" fill="#FFFF00" stroke="black" stroke-width="0.0666669"/>
<path d="M9.07983 12.4087L9.11929 12.369L9.15241 12.4018L9.182 12.372L9.14889 12.3392L9.18835 12.2994L9.22146 12.3323L9.25106 12.3025L9.21794 12.2696L9.2574 12.2299L9.32363 12.2956C9.33687 12.3088 9.33692 12.322 9.32706 12.3319L9.18566 12.4743C9.18043 12.4796 9.17331 12.4826 9.16589 12.4826C9.15846 12.4826 9.15133 12.4797 9.14606 12.4745L9.07983 12.4087Z" fill="#FFFF00" stroke="black" stroke-width="0.0666669"/>
<path d="M9.38282 12.2096C9.36295 12.1899 9.39255 12.1601 9.41242 12.1798L9.4654 12.2324L9.4358 12.2622L9.38282 12.2096Z" fill="black"/>
<path d="M9.28126 12.4577C9.26139 12.4379 9.2877 12.4114 9.30756 12.4312L9.3473 12.4706L9.32099 12.4971L9.28126 12.4577Z" fill="black"/>
<path d="M9.28126 12.4577C9.26139 12.4379 9.2877 12.4114 9.30756 12.4312L9.3473 12.4706L9.32099 12.4971L9.28126 12.4577Z" fill="black"/>
<path d="M8.87598 8.37349C8.88064 8.11682 9.06264 8.05615 9.06264 8.05615C9.06731 8.05615 9.26331 8.12149 9.26331 8.37815H8.87598" fill="#FFFF00"/>
<path d="M8.71725 8.06082L8.68458 8.35482H8.88058C8.88058 8.11215 9.06725 8.07482 9.06725 8.07482C9.07191 8.07482 9.25391 8.12615 9.25858 8.35482H9.45458L9.41725 8.05615H8.71725V8.06082ZM8.67058 8.35949H9.46391C9.47791 8.35949 9.49191 8.37349 9.49191 8.39215C9.49191 8.41549 9.47791 8.42949 9.46391 8.42949H8.67058C8.65658 8.42949 8.64258 8.41549 8.64258 8.39215C8.64258 8.37349 8.65658 8.35949 8.67524 8.35949H8.67058Z" fill="#FFFF00" stroke="black" stroke-width="0.0666669"/>
<path d="M8.9598 8.35471C8.9598 8.20071 9.06713 8.15871 9.06713 8.15871C9.06713 8.15871 9.17447 8.20537 9.17447 8.35471H8.9598ZM8.68913 7.93471H9.4498C9.4638 7.93471 9.4778 7.95337 9.4778 7.97204C9.4778 7.98604 9.4638 8.00004 9.4498 8.00004H8.68913C8.67513 8.00004 8.66113 7.98604 8.66113 7.96737C8.66113 7.95337 8.67513 7.93937 8.68913 7.93937V7.93471ZM8.7078 8.00471H9.42647C9.44047 8.00471 9.45447 8.01871 9.45447 8.03737C9.45447 8.05604 9.44047 8.07004 9.42647 8.07004H8.70313C8.68447 8.07004 8.67513 8.05604 8.67513 8.03737C8.67513 8.01871 8.68447 8.00471 8.70313 8.00471H8.7078ZM8.94113 7.51004H8.99713V7.54737H9.03913V7.51004H9.0998V7.55204H9.1418V7.50537H9.1978V7.5987C9.1978 7.61737 9.18847 7.6267 9.17447 7.6267H8.96913C8.95513 7.6267 8.94113 7.61737 8.94113 7.60337V7.51004ZM9.1558 7.63604L9.1698 7.93471H8.96913L8.98313 7.63137H9.1558" fill="#FFFF00"/>
<path d="M9.1558 7.63604L9.1698 7.93471H8.96913L8.98313 7.63137H9.1558M8.9598 8.35471C8.9598 8.20071 9.06713 8.15871 9.06713 8.15871C9.06713 8.15871 9.17447 8.20537 9.17447 8.35471H8.9598ZM8.68913 7.93471H9.4498C9.4638 7.93471 9.4778 7.95337 9.4778 7.97204C9.4778 7.98604 9.4638 8.00004 9.4498 8.00004H8.68913C8.67513 8.00004 8.66113 7.98604 8.66113 7.96737C8.66113 7.95337 8.67513 7.93937 8.68913 7.93937V7.93471ZM8.7078 8.00471H9.42647C9.44047 8.00471 9.45447 8.01871 9.45447 8.03737C9.45447 8.05604 9.44047 8.07004 9.42647 8.07004H8.70313C8.68447 8.07004 8.67513 8.05604 8.67513 8.03737C8.67513 8.01871 8.68447 8.00471 8.70313 8.00471H8.7078ZM8.94113 7.51004H8.99713V7.54737H9.03913V7.51004H9.0998V7.55204H9.1418V7.50537H9.1978V7.5987C9.1978 7.61737 9.18847 7.6267 9.17447 7.6267H8.96913C8.95513 7.6267 8.94113 7.61737 8.94113 7.60337V7.51004Z" stroke="black" stroke-width="0.0666669"/>
<path d="M8.91323 7.77588V7.93455H8.72656V7.77588H8.91323Z" fill="#FFFF00" stroke="black" stroke-width="0.0666669"/>
<path d="M8.91323 7.77588V7.93455H8.72656V7.77588H8.91323Z" fill="#FFFF00" stroke="black" stroke-width="0.0666669"/>
<path d="M8.69385 7.65479H8.74985V7.70145H8.79185V7.65479H8.84785V7.70145H8.88985V7.65479H8.94585V7.74812C8.94585 7.76679 8.93651 7.77612 8.92251 7.77612H8.72185C8.71442 7.77612 8.7073 7.77317 8.70205 7.76792C8.6968 7.76267 8.69385 7.75554 8.69385 7.74812V7.65479Z" fill="#FFFF00" stroke="black" stroke-width="0.0666669"/>
<path d="M8.69385 7.65479H8.74985V7.70145H8.79185V7.65479H8.84785V7.70145H8.88985V7.65479H8.94585V7.74812C8.94585 7.76679 8.93651 7.77612 8.92251 7.77612H8.72185C8.71442 7.77612 8.7073 7.77317 8.70205 7.76792C8.6968 7.76267 8.69385 7.75554 8.69385 7.74812V7.65479Z" fill="#FFFF00" stroke="black" stroke-width="0.0666669"/>
<path d="M9.04858 7.7295C9.04858 7.7015 9.09058 7.7015 9.09058 7.7295V7.80416H9.04858V7.7295Z" fill="black"/>
<path d="M8.80127 7.83204C8.80127 7.80404 8.8386 7.80404 8.8386 7.83204V7.88804H8.80127V7.83204Z" fill="black"/>
<path d="M8.80127 7.83204C8.80127 7.80404 8.8386 7.80404 8.8386 7.83204V7.88804H8.80127V7.83204Z" fill="black"/>
<path d="M13.5146 8.37349C13.51 8.11682 13.328 8.05615 13.328 8.05615C13.3233 8.05615 13.1273 8.12149 13.1273 8.37815H13.5146" fill="#FFFF00"/>
<path d="M13.6734 8.06082L13.706 8.35482H13.51C13.51 8.11215 13.3234 8.07482 13.3234 8.07482C13.3187 8.07482 13.1367 8.12615 13.132 8.35482H12.936L12.9734 8.05615H13.6734V8.06082ZM13.72 8.35949H12.9267C12.9127 8.35949 12.8987 8.37349 12.8987 8.39215C12.8987 8.41549 12.9127 8.42949 12.9267 8.42949H13.72C13.734 8.42949 13.748 8.41549 13.748 8.39215C13.748 8.37349 13.734 8.35949 13.7154 8.35949H13.72Z" fill="#FFFF00" stroke="black" stroke-width="0.0666669"/>
<path d="M13.4308 8.35471C13.4308 8.20071 13.3235 8.15871 13.3235 8.15871C13.3235 8.15871 13.2162 8.20537 13.2162 8.35471H13.4308ZM13.7015 7.93471H12.9408C12.9268 7.93471 12.9128 7.95337 12.9128 7.97204C12.9128 7.98604 12.9268 8.00004 12.9408 8.00004H13.7015C13.7155 8.00004 13.7295 7.98604 13.7295 7.96737C13.7295 7.95337 13.7155 7.93937 13.7015 7.93937V7.93471ZM13.6828 8.00471H12.9642C12.9502 8.00471 12.9362 8.01871 12.9362 8.03737C12.9362 8.05604 12.9502 8.07004 12.9642 8.07004H13.6875C13.7062 8.07004 13.7155 8.05604 13.7155 8.03737C13.7155 8.01871 13.7062 8.00471 13.6875 8.00471H13.6828ZM13.4495 7.51004H13.3935V7.54737H13.3515V7.51004H13.2908V7.55204H13.2488V7.50537H13.1928V7.5987C13.1928 7.61737 13.2022 7.6267 13.2162 7.6267H13.4215C13.4355 7.6267 13.4495 7.61737 13.4495 7.60337V7.51004ZM13.2348 7.63604L13.2208 7.93471H13.4215L13.4075 7.63137H13.2348" fill="#FFFF00"/>
<path d="M13.2348 7.63604L13.2208 7.93471H13.4215L13.4075 7.63137H13.2348M13.4308 8.35471C13.4308 8.20071 13.3235 8.15871 13.3235 8.15871C13.3235 8.15871 13.2162 8.20537 13.2162 8.35471H13.4308ZM13.7015 7.93471H12.9408C12.9268 7.93471 12.9128 7.95337 12.9128 7.97204C12.9128 7.98604 12.9268 8.00004 12.9408 8.00004H13.7015C13.7155 8.00004 13.7295 7.98604 13.7295 7.96737C13.7295 7.95337 13.7155 7.93937 13.7015 7.93937V7.93471ZM13.6828 8.00471H12.9642C12.9502 8.00471 12.9362 8.01871 12.9362 8.03737C12.9362 8.05604 12.9502 8.07004 12.9642 8.07004H13.6875C13.7062 8.07004 13.7155 8.05604 13.7155 8.03737C13.7155 8.01871 13.7062 8.00471 13.6875 8.00471H13.6828ZM13.4495 7.51004H13.3935V7.54737H13.3515V7.51004H13.2908V7.55204H13.2488V7.50537H13.1928V7.5987C13.1928 7.61737 13.2022 7.6267 13.2162 7.6267H13.4215C13.4355 7.6267 13.4495 7.61737 13.4495 7.60337V7.51004Z" stroke="black" stroke-width="0.0666669"/>
<path d="M13.4774 7.77588V7.93455H13.6641V7.77588H13.4774Z" fill="#FFFF00" stroke="black" stroke-width="0.0666669"/>
<path d="M13.4774 7.77588V7.93455H13.6641V7.77588H13.4774Z" fill="#FFFF00" stroke="black" stroke-width="0.0666669"/>
<path d="M13.6968 7.65479H13.6408V7.70145H13.5988V7.65479H13.5428V7.70145H13.5008V7.65479H13.4448V7.74812C13.4448 7.76679 13.4541 7.77612 13.4681 7.77612H13.6688C13.6762 7.77612 13.6833 7.77317 13.6886 7.76792C13.6938 7.76267 13.6968 7.75554 13.6968 7.74812V7.65479Z" fill="#FFFF00" stroke="black" stroke-width="0.0666669"/>
<path d="M13.6968 7.65479H13.6408V7.70145H13.5988V7.65479H13.5428V7.70145H13.5008V7.65479H13.4448V7.74812C13.4448 7.76679 13.4541 7.77612 13.4681 7.77612H13.6688C13.6762 7.77612 13.6833 7.77317 13.6886 7.76792C13.6938 7.76267 13.6968 7.75554 13.6968 7.74812V7.65479Z" fill="#FFFF00" stroke="black" stroke-width="0.0666669"/>
<path d="M13.342 7.7295C13.342 7.7015 13.3 7.7015 13.3 7.7295V7.80416H13.342V7.7295Z" fill="black"/>
<path d="M13.5894 7.83204C13.5894 7.80404 13.552 7.80404 13.552 7.83204V7.88804H13.5894V7.83204Z" fill="black"/>
<path d="M13.5894 7.83204C13.5894 7.80404 13.552 7.80404 13.552 7.83204V7.88804H13.5894V7.83204Z" fill="black"/>
<path d="M13.5146 8.37349C13.51 8.11682 13.328 8.05615 13.328 8.05615C13.3233 8.05615 13.1273 8.12149 13.1273 8.37815H13.5146" fill="#FFFF00"/>
<path d="M13.6734 8.06082L13.706 8.35482H13.51C13.51 8.11215 13.3234 8.07482 13.3234 8.07482C13.3187 8.07482 13.1367 8.12615 13.132 8.35482H12.936L12.9734 8.05615H13.6734V8.06082ZM13.72 8.35949H12.9267C12.9127 8.35949 12.8987 8.37349 12.8987 8.39215C12.8987 8.41549 12.9127 8.42949 12.9267 8.42949H13.72C13.734 8.42949 13.748 8.41549 13.748 8.39215C13.748 8.37349 13.734 8.35949 13.7154 8.35949H13.72Z" fill="#FFFF00" stroke="black" stroke-width="0.0666669"/>
<path d="M13.4308 8.35471C13.4308 8.20071 13.3235 8.15871 13.3235 8.15871C13.3235 8.15871 13.2162 8.20537 13.2162 8.35471H13.4308ZM13.7015 7.93471H12.9408C12.9268 7.93471 12.9128 7.95337 12.9128 7.97204C12.9128 7.98604 12.9268 8.00004 12.9408 8.00004H13.7015C13.7155 8.00004 13.7295 7.98604 13.7295 7.96737C13.7295 7.95337 13.7155 7.93937 13.7015 7.93937V7.93471ZM13.6828 8.00471H12.9642C12.9502 8.00471 12.9362 8.01871 12.9362 8.03737C12.9362 8.05604 12.9502 8.07004 12.9642 8.07004H13.6875C13.7062 8.07004 13.7155 8.05604 13.7155 8.03737C13.7155 8.01871 13.7062 8.00471 13.6875 8.00471H13.6828ZM13.4495 7.51004H13.3935V7.54737H13.3515V7.51004H13.2908V7.55204H13.2488V7.50537H13.1928V7.5987C13.1928 7.61737 13.2022 7.6267 13.2162 7.6267H13.4215C13.4355 7.6267 13.4495 7.61737 13.4495 7.60337V7.51004ZM13.2348 7.63604L13.2208 7.93471H13.4215L13.4075 7.63137H13.2348" fill="#FFFF00"/>
<path d="M13.2348 7.63604L13.2208 7.93471H13.4215L13.4075 7.63137H13.2348M13.4308 8.35471C13.4308 8.20071 13.3235 8.15871 13.3235 8.15871C13.3235 8.15871 13.2162 8.20537 13.2162 8.35471H13.4308ZM13.7015 7.93471H12.9408C12.9268 7.93471 12.9128 7.95337 12.9128 7.97204C12.9128 7.98604 12.9268 8.00004 12.9408 8.00004H13.7015C13.7155 8.00004 13.7295 7.98604 13.7295 7.96737C13.7295 7.95337 13.7155 7.93937 13.7015 7.93937V7.93471ZM13.6828 8.00471H12.9642C12.9502 8.00471 12.9362 8.01871 12.9362 8.03737C12.9362 8.05604 12.9502 8.07004 12.9642 8.07004H13.6875C13.7062 8.07004 13.7155 8.05604 13.7155 8.03737C13.7155 8.01871 13.7062 8.00471 13.6875 8.00471H13.6828ZM13.4495 7.51004H13.3935V7.54737H13.3515V7.51004H13.2908V7.55204H13.2488V7.50537H13.1928V7.5987C13.1928 7.61737 13.2022 7.6267 13.2162 7.6267H13.4215C13.4355 7.6267 13.4495 7.61737 13.4495 7.60337V7.51004Z" stroke="black" stroke-width="0.0666669"/>
<path d="M13.4774 7.77588V7.93455H13.6641V7.77588H13.4774Z" fill="#FFFF00" stroke="black" stroke-width="0.0666669"/>
<path d="M13.4774 7.77588V7.93455H13.6641V7.77588H13.4774Z" fill="#FFFF00" stroke="black" stroke-width="0.0666669"/>
<path d="M13.6968 7.65479H13.6408V7.70145H13.5988V7.65479H13.5428V7.70145H13.5008V7.65479H13.4448V7.74812C13.4448 7.76679 13.4541 7.77612 13.4681 7.77612H13.6688C13.6762 7.77612 13.6833 7.77317 13.6886 7.76792C13.6938 7.76267 13.6968 7.75554 13.6968 7.74812V7.65479Z" fill="#FFFF00" stroke="black" stroke-width="0.0666669"/>
<path d="M13.6968 7.65479H13.6408V7.70145H13.5988V7.65479H13.5428V7.70145H13.5008V7.65479H13.4448V7.74812C13.4448 7.76679 13.4541 7.77612 13.4681 7.77612H13.6688C13.6762 7.77612 13.6833 7.77317 13.6886 7.76792C13.6938 7.76267 13.6968 7.75554 13.6968 7.74812V7.65479Z" fill="#FFFF00" stroke="black" stroke-width="0.0666669"/>
<path d="M13.342 7.7295C13.342 7.7015 13.3 7.7015 13.3 7.7295V7.80416H13.342V7.7295Z" fill="black"/>
<path d="M13.5894 7.83204C13.5894 7.80404 13.552 7.80404 13.552 7.83204V7.88804H13.5894V7.83204Z" fill="black"/>
<path d="M13.5894 7.83204C13.5894 7.80404 13.552 7.80404 13.552 7.83204V7.88804H13.5894V7.83204Z" fill="black"/>
<path d="M12.6725 12.7861C12.8514 12.6019 12.7662 12.43 12.7662 12.43C12.7629 12.4267 12.5784 12.3337 12.3963 12.5146L12.6692 12.7894" fill="#FFFF00"/>
<path d="M13.0063 12.6783L12.8207 12.9087L12.6826 12.7696C12.8548 12.5986 12.7498 12.4398 12.7498 12.4398C12.7465 12.4365 12.5818 12.3436 12.4163 12.5014L12.2782 12.3623L12.5164 12.1783L13.0096 12.675L13.0063 12.6783ZM12.8273 12.9219L12.2683 12.359C12.2584 12.349 12.2386 12.349 12.2254 12.3621C12.2088 12.3786 12.2087 12.3984 12.2186 12.4083L12.7776 12.9712C12.7875 12.9812 12.8073 12.9812 12.8238 12.9648C12.8371 12.9516 12.8372 12.9318 12.824 12.9186L12.8273 12.9219Z" fill="#FFFF00" stroke="black" stroke-width="0.0666669"/>
<path d="M12.6266 12.7132C12.7359 12.6047 12.69 12.4989 12.69 12.4989C12.69 12.4989 12.5813 12.4557 12.4753 12.5609L12.6266 12.7132ZM13.1153 12.6093L12.5793 12.0696C12.5695 12.0596 12.5464 12.0629 12.5331 12.076C12.5232 12.0859 12.5231 12.1057 12.533 12.1156L13.069 12.6554C13.0788 12.6653 13.0986 12.6654 13.1119 12.6522C13.1218 12.6423 13.1219 12.6225 13.112 12.6126L13.1153 12.6093ZM13.0525 12.6454L12.5461 12.1354C12.5362 12.1255 12.5164 12.1254 12.5032 12.1386C12.4899 12.1518 12.4899 12.1716 12.4997 12.1815L13.0094 12.6947C13.0226 12.708 13.0391 12.7047 13.0523 12.6916C13.0656 12.6784 13.0689 12.662 13.0558 12.6487L13.0525 12.6454ZM13.2391 12.1313L13.1996 12.0915L13.1731 12.1178L13.1435 12.088L13.17 12.0617L13.1273 12.0187L13.0975 12.0483L13.0679 12.0185L13.101 11.9856L13.0615 11.9459L12.9953 12.0116C12.9821 12.0248 12.982 12.038 12.9919 12.0479L13.1366 12.1936C13.1464 12.2035 13.1629 12.2069 13.1729 12.197L13.2391 12.1313ZM12.9984 12.0677L12.7766 12.2682L12.918 12.4106L13.1234 12.187L13.0017 12.0644" fill="#FFFF00"/>
<path d="M12.9984 12.0677L12.7766 12.2682L12.918 12.4106L13.1234 12.187L13.0017 12.0644M12.6266 12.7132C12.7359 12.6047 12.69 12.4989 12.69 12.4989C12.69 12.4989 12.5813 12.4557 12.4753 12.5609L12.6266 12.7132ZM13.1153 12.6093L12.5793 12.0696C12.5695 12.0596 12.5464 12.0629 12.5331 12.076C12.5232 12.0859 12.5231 12.1057 12.533 12.1156L13.069 12.6554C13.0788 12.6653 13.0986 12.6654 13.1119 12.6522C13.1218 12.6423 13.1219 12.6225 13.112 12.6126L13.1153 12.6093ZM13.0525 12.6454L12.5461 12.1354C12.5362 12.1255 12.5164 12.1254 12.5032 12.1386C12.4899 12.1518 12.4899 12.1716 12.4997 12.1815L13.0094 12.6947C13.0226 12.708 13.0391 12.7047 13.0523 12.6916C13.0656 12.6784 13.0689 12.662 13.0558 12.6487L13.0525 12.6454ZM13.2391 12.1313L13.1996 12.0915L13.1731 12.1178L13.1435 12.088L13.17 12.0617L13.1273 12.0187L13.0975 12.0483L13.0679 12.0185L13.101 11.9856L13.0615 11.9459L12.9953 12.0116C12.9821 12.0248 12.982 12.038 12.9919 12.0479L13.1366 12.1936C13.1464 12.2035 13.1629 12.2069 13.1729 12.197L13.2391 12.1313Z" stroke="black" stroke-width="0.0666669"/>
<path d="M13.0701 12.3387L12.9575 12.4505L13.0891 12.583L13.2017 12.4712L13.0701 12.3387Z" fill="#FFFF00" stroke="black" stroke-width="0.0666669"/>
<path d="M13.0701 12.3387L12.9575 12.4505L13.0891 12.583L13.2017 12.4712L13.0701 12.3387Z" fill="#FFFF00" stroke="black" stroke-width="0.0666669"/>
<path d="M13.3108 12.4087L13.2713 12.369L13.2382 12.4018L13.2086 12.372L13.2417 12.3392L13.2023 12.2994L13.1692 12.3323L13.1396 12.3025L13.1727 12.2696L13.1332 12.2299L13.067 12.2956C13.0538 12.3088 13.0537 12.322 13.0636 12.3319L13.205 12.4743C13.2102 12.4796 13.2173 12.4826 13.2247 12.4826C13.2322 12.4826 13.2393 12.4797 13.2446 12.4745L13.3108 12.4087Z" fill="#FFFF00" stroke="black" stroke-width="0.0666669"/>
<path d="M13.3108 12.4087L13.2713 12.369L13.2382 12.4018L13.2086 12.372L13.2417 12.3392L13.2023 12.2994L13.1692 12.3323L13.1396 12.3025L13.1727 12.2696L13.1332 12.2299L13.067 12.2956C13.0538 12.3088 13.0537 12.322 13.0636 12.3319L13.205 12.4743C13.2102 12.4796 13.2173 12.4826 13.2247 12.4826C13.2322 12.4826 13.2393 12.4797 13.2446 12.4745L13.3108 12.4087Z" fill="#FFFF00" stroke="black" stroke-width="0.0666669"/>
<path d="M13.0078 12.2096C13.0277 12.1899 12.9981 12.1601 12.9782 12.1798L12.9252 12.2324L12.9548 12.2622L13.0078 12.2096Z" fill="black"/>
<path d="M13.1094 12.4577C13.1292 12.4379 13.1029 12.4114 13.0831 12.4312L13.0433 12.4706L13.0696 12.4971L13.1094 12.4577Z" fill="black"/>
<path d="M13.1094 12.4577C13.1292 12.4379 13.1029 12.4114 13.0831 12.4312L13.0433 12.4706L13.0696 12.4971L13.1094 12.4577Z" fill="black"/>
<path d="M10.8548 10.6134C10.8539 10.7119 10.8906 10.807 10.9574 10.8794C10.9886 10.9142 11.0267 10.9422 11.0693 10.9615C11.1119 10.9808 11.158 10.9909 11.2048 10.9914C11.3028 10.9914 11.3914 10.9447 11.4521 10.8794C11.5189 10.807 11.5556 10.7119 11.5548 10.6134V10.1094H10.8548V10.6134Z" fill="#003399"/>
<path d="M11.018 10.3705C11.0567 10.3705 11.088 10.3391 11.088 10.3005C11.088 10.2618 11.0567 10.2305 11.018 10.2305C10.9793 10.2305 10.948 10.2618 10.948 10.3005C10.948 10.3391 10.9793 10.3705 11.018 10.3705Z" fill="white"/>
<path d="M11.4054 10.3705C11.4441 10.3705 11.4754 10.3391 11.4754 10.3005C11.4754 10.2618 11.4441 10.2305 11.4054 10.2305C11.3668 10.2305 11.3354 10.2618 11.3354 10.3005C11.3354 10.3391 11.3668 10.3705 11.4054 10.3705Z" fill="white"/>
<path d="M11.2094 10.5575C11.2481 10.5575 11.2794 10.5261 11.2794 10.4875C11.2794 10.4488 11.2481 10.4175 11.2094 10.4175C11.1707 10.4175 11.1394 10.4488 11.1394 10.4875C11.1394 10.5261 11.1707 10.5575 11.2094 10.5575Z" fill="white"/>
<path d="M11.018 10.7533C11.0567 10.7533 11.088 10.7219 11.088 10.6833C11.088 10.6446 11.0567 10.6133 11.018 10.6133C10.9793 10.6133 10.948 10.6446 10.948 10.6833C10.948 10.7219 10.9793 10.7533 11.018 10.7533Z" fill="white"/>
<path d="M11.4054 10.7533C11.4441 10.7533 11.4754 10.7219 11.4754 10.6833C11.4754 10.6446 11.4441 10.6133 11.4054 10.6133C11.3668 10.6133 11.3354 10.6446 11.3354 10.6833C11.3354 10.7219 11.3668 10.7533 11.4054 10.7533Z" fill="white"/>
<path d="M10.8548 10.6134C10.8539 10.7119 10.8906 10.807 10.9574 10.8794C10.9886 10.9142 11.0267 10.9422 11.0693 10.9615C11.1119 10.9808 11.158 10.9909 11.2048 10.9914C11.3028 10.9914 11.3914 10.9447 11.4521 10.8794C11.5189 10.807 11.5556 10.7119 11.5548 10.6134V10.1094H10.8548V10.6134Z" fill="#003399"/>
<path d="M11.018 10.3705C11.0567 10.3705 11.088 10.3391 11.088 10.3005C11.088 10.2618 11.0567 10.2305 11.018 10.2305C10.9793 10.2305 10.948 10.2618 10.948 10.3005C10.948 10.3391 10.9793 10.3705 11.018 10.3705Z" fill="white"/>
<path d="M11.4054 10.3705C11.4441 10.3705 11.4754 10.3391 11.4754 10.3005C11.4754 10.2618 11.4441 10.2305 11.4054 10.2305C11.3668 10.2305 11.3354 10.2618 11.3354 10.3005C11.3354 10.3391 11.3668 10.3705 11.4054 10.3705Z" fill="white"/>
<path d="M11.2094 10.5575C11.2481 10.5575 11.2794 10.5261 11.2794 10.4875C11.2794 10.4488 11.2481 10.4175 11.2094 10.4175C11.1707 10.4175 11.1394 10.4488 11.1394 10.4875C11.1394 10.5261 11.1707 10.5575 11.2094 10.5575Z" fill="white"/>
<path d="M11.018 10.7533C11.0567 10.7533 11.088 10.7219 11.088 10.6833C11.088 10.6446 11.0567 10.6133 11.018 10.6133C10.9793 10.6133 10.948 10.6446 10.948 10.6833C10.948 10.7219 10.9793 10.7533 11.018 10.7533Z" fill="white"/>
<path d="M11.4054 10.7533C11.4441 10.7533 11.4754 10.7219 11.4754 10.6833C11.4754 10.6446 11.4441 10.6133 11.4054 10.6133C11.3668 10.6133 11.3354 10.6446 11.3354 10.6833C11.3354 10.7219 11.3668 10.7533 11.4054 10.7533Z" fill="white"/>
<path d="M10.8548 10.6134C10.8539 10.7119 10.8906 10.807 10.9574 10.8794C10.9886 10.9142 11.0267 10.9422 11.0693 10.9615C11.1119 10.9808 11.158 10.9909 11.2048 10.9914C11.3028 10.9914 11.3914 10.9447 11.4521 10.8794C11.5189 10.807 11.5556 10.7119 11.5548 10.6134V10.1094H10.8548V10.6134Z" fill="#003399"/>
<path d="M11.018 10.3705C11.0567 10.3705 11.088 10.3391 11.088 10.3005C11.088 10.2618 11.0567 10.2305 11.018 10.2305C10.9793 10.2305 10.948 10.2618 10.948 10.3005C10.948 10.3391 10.9793 10.3705 11.018 10.3705Z" fill="white"/>
<path d="M11.4054 10.3705C11.4441 10.3705 11.4754 10.3391 11.4754 10.3005C11.4754 10.2618 11.4441 10.2305 11.4054 10.2305C11.3668 10.2305 11.3354 10.2618 11.3354 10.3005C11.3354 10.3391 11.3668 10.3705 11.4054 10.3705Z" fill="white"/>
<path d="M11.2094 10.5575C11.2481 10.5575 11.2794 10.5261 11.2794 10.4875C11.2794 10.4488 11.2481 10.4175 11.2094 10.4175C11.1707 10.4175 11.1394 10.4488 11.1394 10.4875C11.1394 10.5261 11.1707 10.5575 11.2094 10.5575Z" fill="white"/>
<path d="M11.018 10.7533C11.0567 10.7533 11.088 10.7219 11.088 10.6833C11.088 10.6446 11.0567 10.6133 11.018 10.6133C10.9793 10.6133 10.948 10.6446 10.948 10.6833C10.948 10.7219 10.9793 10.7533 11.018 10.7533Z" fill="white"/>
<path d="M11.4054 10.7533C11.4441 10.7533 11.4754 10.7219 11.4754 10.6833C11.4754 10.6446 11.4441 10.6133 11.4054 10.6133C11.3668 10.6133 11.3354 10.6446 11.3354 10.6833C11.3354 10.7219 11.3668 10.7533 11.4054 10.7533Z" fill="white"/>
<path d="M10.8548 10.6134C10.8539 10.7119 10.8906 10.807 10.9574 10.8794C10.9886 10.9142 11.0267 10.9422 11.0693 10.9615C11.1119 10.9808 11.158 10.9909 11.2048 10.9914C11.3028 10.9914 11.3914 10.9447 11.4521 10.8794C11.5189 10.807 11.5556 10.7119 11.5548 10.6134V10.1094H10.8548V10.6134Z" fill="#003399"/>
<path d="M11.018 10.3705C11.0567 10.3705 11.088 10.3391 11.088 10.3005C11.088 10.2618 11.0567 10.2305 11.018 10.2305C10.9793 10.2305 10.948 10.2618 10.948 10.3005C10.948 10.3391 10.9793 10.3705 11.018 10.3705Z" fill="white"/>
<path d="M11.4054 10.3705C11.4441 10.3705 11.4754 10.3391 11.4754 10.3005C11.4754 10.2618 11.4441 10.2305 11.4054 10.2305C11.3668 10.2305 11.3354 10.2618 11.3354 10.3005C11.3354 10.3391 11.3668 10.3705 11.4054 10.3705Z" fill="white"/>
<path d="M11.2094 10.5575C11.2481 10.5575 11.2794 10.5261 11.2794 10.4875C11.2794 10.4488 11.2481 10.4175 11.2094 10.4175C11.1707 10.4175 11.1394 10.4488 11.1394 10.4875C11.1394 10.5261 11.1707 10.5575 11.2094 10.5575Z" fill="white"/>
<path d="M11.018 10.7533C11.0567 10.7533 11.088 10.7219 11.088 10.6833C11.088 10.6446 11.0567 10.6133 11.018 10.6133C10.9793 10.6133 10.948 10.6446 10.948 10.6833C10.948 10.7219 10.9793 10.7533 11.018 10.7533Z" fill="white"/>
<path d="M11.4054 10.7533C11.4441 10.7533 11.4754 10.7219 11.4754 10.6833C11.4754 10.6446 11.4441 10.6133 11.4054 10.6133C11.3668 10.6133 11.3354 10.6446 11.3354 10.6833C11.3354 10.7219 11.3668 10.7533 11.4054 10.7533Z" fill="white"/>
<path d="M10.8548 10.6134C10.8539 10.7119 10.8906 10.807 10.9574 10.8794C10.9886 10.9142 11.0267 10.9422 11.0693 10.9615C11.1119 10.9808 11.158 10.9909 11.2048 10.9914C11.3028 10.9914 11.3914 10.9447 11.4521 10.8794C11.5189 10.807 11.5556 10.7119 11.5548 10.6134V10.1094H10.8548V10.6134Z" fill="#003399"/>
<path d="M11.018 10.3705C11.0567 10.3705 11.088 10.3391 11.088 10.3005C11.088 10.2618 11.0567 10.2305 11.018 10.2305C10.9793 10.2305 10.948 10.2618 10.948 10.3005C10.948 10.3391 10.9793 10.3705 11.018 10.3705Z" fill="white"/>
<path d="M11.4054 10.3705C11.4441 10.3705 11.4754 10.3391 11.4754 10.3005C11.4754 10.2618 11.4441 10.2305 11.4054 10.2305C11.3668 10.2305 11.3354 10.2618 11.3354 10.3005C11.3354 10.3391 11.3668 10.3705 11.4054 10.3705Z" fill="white"/>
<path d="M11.2094 10.5575C11.2481 10.5575 11.2794 10.5261 11.2794 10.4875C11.2794 10.4488 11.2481 10.4175 11.2094 10.4175C11.1707 10.4175 11.1394 10.4488 11.1394 10.4875C11.1394 10.5261 11.1707 10.5575 11.2094 10.5575Z" fill="white"/>
<path d="M11.018 10.7533C11.0567 10.7533 11.088 10.7219 11.088 10.6833C11.088 10.6446 11.0567 10.6133 11.018 10.6133C10.9793 10.6133 10.948 10.6446 10.948 10.6833C10.948 10.7219 10.9793 10.7533 11.018 10.7533Z" fill="white"/>
<path d="M11.4054 10.7533C11.4441 10.7533 11.4754 10.7219 11.4754 10.6833C11.4754 10.6446 11.4441 10.6133 11.4054 10.6133C11.3668 10.6133 11.3354 10.6446 11.3354 10.6833C11.3354 10.7219 11.3668 10.7533 11.4054 10.7533Z" fill="white"/>
</g>
<defs>
<clipPath id="clip0_321_8883">
<rect width="28" height="21" fill="white"/>
</clipPath>
</defs>
</svg>
