<svg width="26" height="26" viewBox="0 0 26 26" fill="none" xmlns="http://www.w3.org/2000/svg">
<path d="M11.2955 1.75L11.2957 1.75C12.7215 1.74915 14.1292 2.07172 15.4139 2.69379C16.6987 3.31588 17.8275 4.22152 18.7159 5.34348L18.716 5.34351C19.6045 6.46546 20.2298 7.77473 20.5448 9.17378L20.5448 9.17387C20.86 10.573 20.8569 12.0255 20.5356 13.4232L20.5356 13.4233C20.2145 14.821 19.5836 16.1275 18.6902 17.2455L18.6901 17.2455C17.7968 18.3637 16.6641 19.2643 15.3767 19.8806L15.3766 19.8806C14.0892 20.4971 12.6802 20.8135 11.2544 20.8065C10.0645 20.8005 8.88834 20.5693 7.78692 20.1272L7.59145 20.0487L7.38372 20.0835L2.01072 20.9827C1.84505 21.0104 1.70948 20.8518 1.7626 20.6925L3.12495 16.6062L3.23057 16.2893L3.06578 15.9989C2.32722 14.6971 1.9029 13.2353 1.83162 11.7319C1.74996 10.0096 2.13471 8.29746 2.94464 6.77792L2.94464 6.77791C3.75454 5.2584 4.95915 3.9886 6.42972 3.10336C7.90028 2.21815 9.5819 1.75054 11.2955 1.75Z" fill="white" stroke="#183481" stroke-width="1.5"/>
<path d="M6.04293 2.4608C7.63003 1.50543 9.44526 1.00059 11.2953 1C12.8345 0.999087 14.3541 1.34734 15.7408 2.01876C17.1274 2.6902 18.3454 3.66751 19.3039 4.87787C20.2625 6.0882 20.9368 7.50034 21.2765 9.00904C21.6164 10.5177 21.6131 12.084 21.2666 13.5912C20.9203 15.0984 20.2399 16.5076 19.2761 17.7137C18.3123 18.9199 17.0901 19.8919 15.7005 20.5571C14.311 21.2224 12.7899 21.5641 11.2507 21.5565C9.966 21.5501 8.69637 21.3004 7.50752 20.8232L2.13448 21.7224C1.41117 21.8434 0.819153 21.151 1.05109 20.4553L2.41345 16.3689C1.61685 14.9648 1.15932 13.3885 1.08246 11.7674C0.994411 9.91036 1.40924 8.06404 2.28279 6.42514C3.15631 4.78625 4.45584 3.41617 6.04293 2.4608Z" stroke="#183481" stroke-width="1.2" stroke-linecap="round" stroke-linejoin="round"/>
<path d="M21.2173 10.205C20.027 9.48846 18.6655 9.10982 17.278 9.10938C16.1236 9.1087 14.9839 9.36988 13.9439 9.87346C12.9039 10.377 11.9904 11.11 11.2715 12.0178C10.5527 12.9255 10.0469 13.9846 9.79208 15.1162C9.53719 16.2477 9.53974 17.4223 9.79953 18.5529C10.0593 19.6832 10.5696 20.74 11.2924 21.6447C12.0153 22.5492 12.9319 23.2782 13.9741 23.7772C15.0162 24.2762 16.1571 24.5324 17.3115 24.5266C18.275 24.5219 19.2272 24.3348 20.1188 23.9768L24.1486 24.6511C24.691 24.742 25.1352 24.2227 24.9613 23.7009L23.9395 20.6361C24.5369 19.583 24.8799 18.4007 24.9377 17.185C25.0037 15.7921 24.6926 14.4074 24.0373 13.1783C23.3823 11.9491 22.4076 10.9215 21.2173 10.205Z" fill="#D4DDF7" stroke="#183481" stroke-width="1.5" stroke-linecap="round" stroke-linejoin="round"/>
</svg>
