<svg width="28" height="21" viewBox="0 0 28 21" fill="none" xmlns="http://www.w3.org/2000/svg">
<g clip-path="url(#clip0_321_9047)">
<path d="M0 0H28V21H0V0Z" fill="#012169"/>
<path d="M3.28125 0L13.9563 7.91875L24.5875 0H28V2.7125L17.5 10.5437L28 18.3312V21H24.5L14 13.1687L3.54375 21H0V18.375L10.4563 10.5875L0 2.8V0H3.28125Z" fill="white"/>
<path d="M18.55 12.2937L28 19.25V21L16.1437 12.2937H18.55ZM10.5 13.1687L10.7625 14.7L2.3625 21H0L10.5 13.1687ZM28 0V0.13125L17.1062 8.35625L17.1938 6.43125L25.8125 0H28ZM0 0L10.4563 7.7H7.83125L0 1.8375V0Z" fill="#C8102E"/>
<path d="M10.5437 0V21H17.5437V0H10.5437ZM0 7V14H28V7H0Z" fill="white"/>
<path d="M0 8.44375V12.6438H28V8.44375H0ZM11.9437 0V21H16.1437V0H11.9437Z" fill="#C8102E"/>
</g>
<defs>
<clipPath id="clip0_321_9047">
<rect width="28" height="21" fill="white"/>
</clipPath>
</defs>
</svg>
