<svg width="48" height="48" viewBox="0 0 48 48" fill="none" xmlns="http://www.w3.org/2000/svg">
<path fill-rule="evenodd" clip-rule="evenodd" d="M18 28.8H30C33.3137 28.8 36 31.4863 36 34.8C36 35.4627 35.4627 36 34.8 36C34.1846 36 33.6774 35.5368 33.6081 34.9399L33.5939 34.5885C33.4884 32.7687 32.0313 31.3116 30.2115 31.2061L30 31.2H18C16.0118 31.2 14.4 32.8118 14.4 34.8C14.4 35.4627 13.8627 36 13.2 36C12.5373 36 12 35.4627 12 34.8C12 31.5735 14.5468 28.9418 17.7397 28.8055L18 28.8ZM24 12C27.9765 12 31.2 15.2235 31.2 19.2C31.2 23.1765 27.9765 26.4 24 26.4C20.0236 26.4 16.8 23.1765 16.8 19.2C16.8 15.2235 20.0236 12 24 12ZM24 14.4C21.349 14.4 19.2 16.549 19.2 19.2C19.2 21.851 21.349 24 24 24C26.651 24 28.8 21.851 28.8 19.2C28.8 16.549 26.651 14.4 24 14.4Z" fill="#333333"/>
</svg>
