<svg width="19" height="17" viewBox="0 0 19 17" fill="none" xmlns="http://www.w3.org/2000/svg">
<path d="M11.2459 3.12422C10.4826 1.75841 8.51736 1.75841 7.75411 3.12422L1.66286 14.0244C0.917869 15.3575 1.88157 17 3.40875 17H15.5913C17.1184 17 18.0821 15.3575 17.3371 14.0244L11.2459 3.12422ZM8.7694 5.89459C9.57638 5.89459 10.2306 6.54878 10.2306 7.35576V8.14205L9.91532 10.9315C9.89143 11.1429 9.71266 11.3026 9.49997 11.3026C9.28728 11.3026 9.10851 11.1429 9.08462 10.9315L8.76935 8.14205V5.89464C8.76935 5.89462 8.76938 5.89459 8.7694 5.89459ZM8.7694 13.2475C8.7694 12.8587 9.0846 12.5435 9.47342 12.5435H9.52655C9.91537 12.5435 10.2306 12.8587 10.2306 13.2475C10.2306 13.6364 9.91537 13.9516 9.52655 13.9516H9.47342C9.0846 13.9516 8.7694 13.6364 8.7694 13.2475Z" fill="#E04848"/>
</svg>
